<?xml version="1.0" encoding="UTF-8"?><svg id="Layer_1" xmlns="http://www.w3.org/2000/svg" viewBox="0 0 512 512"><defs><style>.cls-1{fill:#ed1b24;}.cls-1,.cls-2,.cls-3{fill-rule:evenodd;}.cls-2{fill:#b11016;}.cls-3{fill:#005e9c;}</style></defs><g id="svgg"><path id="path0" class="cls-3" d="M388.74,194.07c-12.77,2.92-20.11,12.4-20.3,26.22-.04,2.56-.24,6.29-.45,8.29l-.39,3.63-4.21.3c-5.21.37-7.16,2.43-6.85,7.23l.18,2.74,5.29.18,5.29.17v31.15l-4.08,3.04c-7.78,5.8-13.23,7.93-17.35,6.79-4.16-1.15-4.22-1.46-4.56-23.58-.29-18.78-.37-19.87-1.55-21.45-4.14-5.54-18.64-9.11-22.27-5.48l-1.57,1.57v23.79c0,23.87.35,29.01,2.24,32.77,6.5,12.94,29.22,11.09,45.42-3.7l4.25-3.88.19,12.16.19,12.16,1.7,1.46c2.99,2.57,12.17,1.56,17.41-1.92,5.47-3.64,5.38-3.03,5.38-35.67v-28.52l7.1-.24c10.11-.34,13.13-2.53,11.97-8.69l-.39-2.08h-8.59c-10.86-.02-10.34.34-9.94-7.04.79-14.32,6.02-19.94,18.09-19.44l4.42.18.2-1.75c.86-7.54-14.04-13.32-26.81-10.4M323.87,201.34c-8.22,2.68-12.07,10.46-8.4,16.94,6.98,12.33,27.64,8.23,27.64-5.48,0-8.44-10.07-14.45-19.24-11.46M248.39,203.62c-4,1.04-3.81-1.38-3.81,46.87v43.7l2.07,2.26,2.07,2.26,30.87.17,30.87.17v-5.61c0-10.56-.4-10.74-23.57-10.74h-16.62s.18-34.73.18-34.73c.2-38.41.35-36.79-3.69-39.87-4.03-3.07-14.21-5.55-18.38-4.46M443.15,231.96c-21.47,3.61-35.69,18.3-35.65,36.83.04,20.61,13.08,31.09,38.67,31.11,17.99,0,35.21-7.84,36.89-16.81.76-4.05-.4-4.3-6.22-1.35-25.61,12.98-47.53,3.04-42.84-19.43,3.17-15.19,21.1-22.68,26.01-10.87,2.9,6.96-5.19,15.05-16.87,16.87-5.29.82-5.52,1.31-2.2,4.63,9.5,9.5,33.37,2.83,39.77-11.1,8.86-19.29-10.23-34.47-37.57-29.87"/><path id="path1" class="cls-2" d="M28.8,204.93c0,85.65.09,94.17.96,93.84.53-.2,42.75-.37,93.84-.37h92.88l-26.28-26.29-26.28-26.29-40.81-.16-40.81-.16-.16-40.81-.16-40.81-26.59-26.59-26.59-26.59v94.21"/><path id="path3" class="cls-1" d="M455.54,109.95c-16.21,1.51-22.67,8.38-24.2,25.73-2.04,23.04,2.94,35.65,15.64,39.64,7.37,2.31,21.53,2.59,31.41.61l1.93-.39v-13.72l-9.54.38c-17.15.68-18.57-.74-18.57-18.54s.55-18.44,16.97-18.44h11.14v-7.1c0-5.83-.16-7.1-.88-7.1-.49,0-3.55-.26-6.8-.58-9.57-.94-11.69-1-17.1-.49M55.24,137.16l26.74,26.75.16,40.8.15,40.8,40.8.15,40.8.16,26.15,26.14,26.14,26.14-93.24.31-93.24.31,93.84.15,93.84.15V110.42H28.5l26.74,26.75M318.48,110.86l-2.57.23v64.55l2.27.45c4.99,1,31.02.58,35.21-.57,14.43-3.94,19.34-12.13,19.34-32.24,0-28.63-12.62-36.18-54.25-32.43M244.59,143.36v32.34h20.53l.16-12.84.16-12.84h19.34l.16,12.86.16,12.86,10.41-.17,10.41-.16.18-29.62c.1-16.29.01-30.78-.19-32.2l-.37-2.58-10.09.16-10.09.17-.16,11.94-.16,11.94h-19.92v-24.18h-20.55v32.34M380.59,143.36v32.34h20.55v-25.97l12.24-.16,12.24-.16v-12.69l-12.24-.16-12.24-.16v-10.83l13.15-.16,13.15-.16.17-7.1.17-7.1h-47.18v32.34M347.46,125.71c4.07,1.7,5.02,5.07,5,17.64-.03,16.36-2,19.34-12.52,18.92l-4.39-.18-.16-18.13c-.09-9.97-.01-18.51.17-18.98.41-1.07,8.84-.56,11.9.72M163.44,204.56l-.16,40.35h-80.39l-.16-40.35-.16-40.35h81.01l-.16,40.35M478.66,340.12c-1.21.49-1.36.98-1.37,4.34,0,2.09-.69,7.2-1.51,11.35-2.87,14.52-1.52,23.15,3.24,20.6,1.7-.91,2.02-2.33.91-4.04-1.35-2.06-.78-10.61,1.25-18.63.83-3.3,1.7-7.85,1.92-10.12l.41-4.13-1.74.04c-.96.02-2.35.28-3.1.58M43.08,340.82c-10.9,3.05-10.3,13.2,1.35,22.9,12.81,10.67,8.64,19.47-6.57,13.86-6.8-2.51-9.07-1.96-9.07,2.19,0,3.07,15.77,4.56,21.63,2.04,10.75-4.62,9.84-12.2-2.69-22.44-6.97-5.7-8.58-9.86-5.3-13.76,3.14-3.73,7.62-3.25,11.99,1.28,3.21,3.33,4.04,3.37,5.78.3,2.69-4.73-8.33-8.84-17.12-6.38M306.49,342.18l-1.87.81-.39,6.87c-.21,3.78-.93,10.49-1.59,14.93s-1.38,10.07-1.61,12.54l-.41,4.49h2.05c1.91,0,2.19-.27,4.11-3.99,2.72-5.26,2.8-5.26,8.63-.21,7.67,6.66,9.7,7.62,12.13,5.77,1.58-1.2,1.28-2.59-.71-3.28-2.49-.87-7.68-4.31-11.13-7.38l-2.93-2.6,2.02-1.9c2.91-2.74,8.47-6.36,9.76-6.36,1.39,0,1.21-2.9-.23-3.8-2.04-1.28-9.78,4.75-16.54,12.86l-2.27,2.72.37-2.12c3.03-17.18,4.3-29.61,3.06-29.99-.33-.1-1.44.18-2.47.63M210.06,342.68c-1.51.6-1.59.87-1.91,6.43-.18,3.19-1.05,9.34-1.93,13.66l-1.59,7.86-2.84,2.59c-5.38,4.9-11.99,6.94-14.3,4.39-1.28-1.41-.95-4.92,1.11-11.69l1.32-4.36,4.33-.3c4.58-.32,5.86-.97,5.48-2.81-.23-1.13-3.29-1.36-6.99-.5-1.34.31-1.36.25-.97-3.93l.39-4.24h-1.56c-3.68,0-4.58.88-4.78,4.66l-.18,3.5-2.72.3c-2.47.27-2.74.47-2.92,2.05-.19,1.69-.13,1.74,1.95,1.4,2.74-.44,2.9-.12,2.03,4.06-.81,3.84-2.47,5.57-9.25,9.66-9.8,5.9-13.66,2.58-10.02-8.61,2.33-7.16,2.36-6.74-.46-6.74s-3.5.74-4.66,4.61c-2.63,8.75-9.65,14.56-13.86,11.48-2.19-1.6-.76-7.56,3.17-13.26,1.84-2.66,1.39-3.33-2-2.93-3.25.38-5.57,4.99-6.64,13.19-1.25,9.59,6.2,11.8,14.95,4.42,3.42-2.89,3.29-2.88,3.78-.3,1.12,5.99,8.92,6.03,19.01.11l3.7-2.17v2.33c0,7.21,9.75,6.94,21-.57l1.96-1.31v2.76c0,2.71.04,2.77,2.46,3.42,2.42.65,4.18.12,4.18-1.26,0-2.19,9.42-14.47,11.09-14.46.46,0,.71,1.65.73,4.99.08,11.21,8.26,14.83,17.31,7.66,2.63-2.09,2.91-2.14,2.91-.61,0,6.4,9.14,6.05,17.11-.66,1.6-1.34,2.99-2.35,3.1-2.23.11.12.76,1.33,1.45,2.7,2.51,4.98,7.37,5.62,14.53,1.94,4.53-2.33,5.65-3.64,4.27-5.02-.83-.83-1.14-.76-3,.61-7.09,5.23-12.08,2.41-12.08-6.82,0-10.89-12.89-12.76-21.34-3.1-1.56,1.79-2.84,3.55-2.84,3.93,0,1.07-4.79,6.23-6.69,7.22-6.62,3.42-10.52-1.36-9.19-11.29,1.42-10.62-4.25-8.42-16.57,6.43-3.83,4.61-3.86,5.06,1.36-20.55,1.79-8.79,1.14-10.43-3.44-8.61M379.08,344.31c-3.16,1.28-4.56,6.07-1.92,6.57,3.7.7,7.7-3.11,5.99-5.71-.65-.99-2.69-1.42-4.07-.86M394.72,345.9c-3.82,1.89-3.94,6.3-.16,6.3s6.62-4.5,4.03-6.31c-1.62-1.14-1.53-1.14-3.87.02M125.51,350.58c-5.99,2.01-11.68,6.94-15.92,13.81-1.3,2.11-2.19,3.15-1.99,2.32,1.34-5.38,1.26-6.04-.71-6.04-3.49,0-3.75.35-3.75,5.03v4.29l-3.4,3.16c-8.63,8.03-12.58,7.01-12.68-3.25-.06-6.33-.09-6.45-1.81-7.84-8.65-6.96-22.91,1.87-22.91,14.2,0,8.78,8.55,9.36,17.05,1.16l2.55-2.46,1.19,2.78c2.72,6.35,8.54,6.17,16.83-.54l1.96-1.59v3.6c0,4.3.11,4.45,2.64,3.67,1.91-.59,2-.75,3-6.07,2.04-10.81,11.46-20.95,19.5-20.99,2.33-.01,2.52-.15,3.25-2.37,1.22-3.69-.08-4.47-4.81-2.89M340.17,359.51c-11.07,3.33-15.27,18.51-6.17,22.28,5.13,2.13,18.19-.72,18.67-4.07.24-1.72-1.39-2.42-2.78-1.2-4.39,3.84-12.09,3.73-14.86-.23-1.6-2.28-1.22-2.71,3.7-4.14,8.66-2.52,12.55-6.01,11.06-9.93-.99-2.61-5.62-3.92-9.61-2.72M376.55,359.73c-2.22.97-2.21.94-3.23,14.83-1.73,23.76-5.81,30.33-13.24,21.32l-1.72-2.08-.98,1.4c-2.75,3.93.23,7.17,6.58,7.17,7.7,0,11.55-4.92,13.21-16.92,2.11-15.13,3.34-22.74,3.97-24.37.36-.94.65-1.82.65-1.96,0-.57-3.43-.17-5.25.62M444.8,360.78c-10.48,4.13-14.94,16.55-7.58,21.1,4.93,3.04,13.6,1.21,19.09-4.04,10.49-10.02,2.11-22.43-11.51-17.06M388.71,362.77c-7.03,16.83.9,25.7,14.03,15.69l1.94-1.48,1.41,2.57c2.19,3.97,4.67,4.34,10.17,1.52,2.32-1.19,4.23-2.12,4.22-2.07,0,.05-.79,3.23-1.76,7.07-.97,3.83-1.96,8.93-2.19,11.33l-.43,4.36h2.46c3.22,0,3.32-.23,3.83-9.07.56-9.64,2.41-16.17,6.14-21.7,4.92-7.29,5.19-8.65,1.94-9.73-2.81-.93-2.88-.86-5.39,5.62-2.94,7.6-6.17,10.7-11.13,10.7-4.2,0-5.11-3.64-2.57-10.31,1.63-4.28,1.58-5.07-.36-5.95-2.21-1.01-2.76-.29-4.68,6.08-2.08,6.92-5.84,10.17-11.76,10.17-4.66,0-4.93-4.97-.74-13.2,1.24-2.44,1.24-2.49.09-3.1-2.43-1.3-4.27-.77-5.22,1.49M344.2,364.67c.23,2.39-1.75,4.08-6.37,5.42-3.87,1.13-3.93,1.1-3.15-1.71,1.45-5.24,9.08-8.22,9.52-3.71M454.64,365.09c2.41,3.44.14,10.27-4.29,12.86-6.7,3.93-13.33-.06-11.14-6.69,2.35-7.11,12.05-10.99,15.43-6.17M80.85,364.87c2.13,2.14,1.86,2.97-2.8,8.69-6.21,7.63-13.09,6.74-10.66-1.38,2.29-7.64,9.31-11.46,13.45-7.32M262.24,364.83c2.39,2.14,2.04,3.11-3.09,8.68-5.94,6.44-10.93,7.04-10.93,1.32,0-8.17,8.94-14.54,14.03-9.99M472.21,381.76c-2.49,2.76,1.3,6.72,5.15,5.38.97-.34,1.76-.84,1.76-1.11s.16-.91.36-1.42c1.06-2.76-5.14-5.19-7.26-2.85"/></g></svg>