<?xml version="1.0" encoding="utf-8"?>
<!-- Generator: Adobe Illustrator 19.2.1, SVG Export Plug-In . SVG Version: 6.00 Build 0)  -->
<svg version="1.1" id="layer" xmlns="http://www.w3.org/2000/svg" xmlns:xlink="http://www.w3.org/1999/xlink" x="0px" y="0px"
	 viewBox="0 0 652 652" style="enable-background:new 0 0 652 652;" xml:space="preserve">
<style type="text/css">
	.st0{fill:#EC2227;}
	.st1{fill:#0D4D8B;}
	.st2{fill-rule:evenodd;clip-rule:evenodd;fill:#FFFFFF;}
	.st3{fill:#010101;}
	.st4{fill:#FFFFFF;}
</style>
<g>
	<rect x="20.2" y="220.2" class="st0" width="600" height="129.6"/>
	<rect x="20.2" y="355.7" class="st1" width="600" height="68.2"/>
	<polygon class="st2" points="75.5,393.6 82,369.5 96.6,369.5 96.6,409.2 85.5,409.2 85.5,393.6 86.3,385.1 80,409.2 71.2,409.2 
		64.8,384.7 65.6,393.6 65.6,409.2 54.5,409.2 54.5,369.5 69.2,369.5 	"/>
	<path class="st2" d="M127,369.5v25c0,1.9,0.5,3.4,1.7,4.5c1.1,1,2.4,1.6,3.8,1.7h0.5l0.3,0c1.2-0.1,2.3-0.7,3.4-1.8
		c1-1,1.6-2.5,1.6-4.3v-25h12.3v25c0,5.2-1.6,9.2-4.8,11.9c-3.2,2.8-7.6,4.1-13.2,4.1c-5.5,0-9.9-1.4-12.9-4.2
		c-3-2.8-4.6-7-4.6-12.6v-24.2H127"/>
	<polygon class="st2" points="201.1,369.5 201.1,380.2 190.4,380.2 190.4,409.2 178,409.2 178,380.2 167.4,380.2 167.4,369.5 	"/>
	<path class="st2" d="M230.8,369.5v25c0,1.9,0.6,3.4,1.7,4.5c1.1,1,2.3,1.6,3.7,1.7h0.5l0.2,0c1.2-0.1,2.4-0.7,3.4-1.8
		c1.1-1,1.6-2.5,1.6-4.3v-25h12.3v25c0,5.2-1.6,9.2-4.7,11.9c-3.2,2.8-7.6,4.1-13.2,4.1c-5.6,0-9.9-1.4-12.9-4.2
		c-3-2.8-4.5-7-4.5-12.6v-24.2H230.8"/>
	<path class="st2" d="M295.9,369.5l13.1,39.6h-12.3l-1.2-5.1h-11.9l-1.3,5.1h-12.2l13.1-39.6H295.9z M293,395.9l-3.5-12.9l-3.5,12.9
		H293z"/>
	<polygon class="st2" points="337.9,369.5 337.9,399.8 354.5,399.8 354.5,409.2 325.9,409.2 325.9,369.5 	"/>
	<polygon class="st2" points="429,369.9 429,378.5 412.7,378.5 412.7,386.4 425.8,386.4 425.8,395.9 412.7,395.9 412.7,409.2 
		400.4,409.2 400.4,369.9 	"/>
	<path class="st2" d="M458.9,369.5v25c0,1.9,0.6,3.4,1.8,4.5c1.1,1,2.3,1.6,3.7,1.7h0.5l0.2,0c1.2-0.1,2.4-0.7,3.4-1.8
		c1.1-1,1.6-2.5,1.6-4.3v-25h12.3v25c0,5.2-1.6,9.2-4.8,11.9c-3.2,2.8-7.5,4.1-13.2,4.1c-5.6,0-9.9-1.4-12.9-4.2
		c-3-2.8-4.5-7-4.5-12.6v-24.2H458.9"/>
	<polygon class="st2" points="512.9,369.5 525.7,390.2 525.3,383.8 525.3,369.5 537.2,369.5 537.2,409.2 525.7,409.2 512.9,388 
		513.3,394.5 513.3,409.2 501.8,409.2 501.8,369.5 	"/>
	<path class="st2" d="M571.3,369.6c1.1,0,2.3,0.1,3.7,0.4c1.4,0.2,2.8,0.6,4.2,1.2c2.9,1.1,5.6,3,8,5.7c2.4,2.8,3.7,6.7,3.9,11.8v1
		c0,7.2-1.8,12.3-5.3,15.3c-3.6,2.9-8.2,4.4-13.8,4.4l-15.9-0.1v-39.7H571.3 M568,399.8l0.4,0.1h0.3l0.3,0.1h0.3
		c2.8,0,5.1-0.8,6.8-2.3c1.8-1.5,2.6-4.4,2.6-8.6c0-4.1-0.8-6.8-2.5-8.1c-1.7-1.2-3.8-2-6.4-2l-1.9-0.1V399.8z"/>
	<path class="st3" d="M567,256.1c0,0-17.4-9.8-38.4-9.8c-21,0-48.7,14.4-50.1,42.9c0,0-0.9,44.2,49.9,44.2
		c30.4-1.3,41.9-11.4,41.9-11.4l-12.8-20c0,0-15.3,9-29.1,8.4c-13.9-0.6-23.1-10.9-23.6-19.4c-0.5-8.6,7.1-20.2,23.6-21.7
		c16.4-1.5,30.5,7.6,30.5,7.6L567,256.1"/>
	<polygon class="st3" points="192.7,246.3 216.9,246.3 216.9,276.8 254.3,276.8 254.3,246.3 278.5,246.3 278.5,332.1 254.3,332.1 
		254.3,299 216.9,299 216.9,332.1 192.7,332.1 	"/>
	<path class="st3" d="M320.2,268.4v41.7h19.9c0,0,18.4,0.2,18.4-21.7c0-20.4-18.6-20-18.6-20H320.2 M296,246.3h45.5
		c0,0,42.4,1.9,42.4,41.9c0,45.8-42.4,43.9-42.4,43.9H296V246.3z"/>
	<polygon class="st3" points="396.2,246.3 474.9,246.3 474.9,269.3 420.4,269.3 420.4,280.3 459.1,280.3 459.1,301.3 420.4,301.3 
		420.4,331.9 396.2,331.9 	"/>
	<path class="st4" d="M563.4,252.4c0,0-17.4-9.8-38.4-9.8c-20.9,0-48.7,14.4-50.2,42.9c0,0-0.9,44.2,49.9,44.2
		c30.5-1.3,42-11.4,42-11.4l-12.8-20c0,0-15.3,9-29.2,8.4c-13.9-0.6-23-10.9-23.6-19.4c-0.5-8.6,7-20.1,23.6-21.6
		c16.5-1.5,30.6,7.6,30.6,7.6L563.4,252.4"/>
	<polygon class="st4" points="189.1,242.6 213.3,242.6 213.3,273.1 250.8,273.1 250.8,242.6 275,242.6 275,328.4 250.8,328.4 
		250.8,295.3 213.3,295.3 213.3,328.4 189.1,328.4 	"/>
	<path class="st4" d="M316.6,264.7v41.6h19.9c0,0,18.5,0.2,18.5-21.7c0-20.5-18.7-20-18.7-20H316.6 M292.4,242.6h45.5
		c0,0,42.4,1.9,42.4,41.9c0,45.8-42.4,43.9-42.4,43.9h-45.5V242.6z"/>
	<polygon class="st4" points="392.7,242.6 471.3,242.6 471.3,265.6 416.9,265.6 416.9,276.7 455.5,276.7 455.5,297.6 416.9,297.6 
		416.9,328.2 392.6,328.2 	"/>
	<polygon class="st3" points="70.2,304.5 76,298.6 70.4,298.6 70.4,242.6 95.3,242.6 101.6,248.9 101.6,242.6 155.5,242.6 
		155.5,268.2 149.9,273.9 155.5,273.9 155.5,329.2 131.4,329.2 125.8,323.5 125.8,329.2 70.4,329.2 	"/>
	<polygon class="st3" points="70.2,304.5 70.3,304.7 76.4,298.5 70.5,298.5 70.5,242.7 95.3,242.7 101.7,249.2 101.7,242.7 
		155.4,242.7 155.4,268.2 149.6,274.1 155.4,274.1 155.4,329.1 131.4,329.1 125.6,323.2 125.6,329.1 70.5,329.1 70.3,304.5 
		70.2,304.5 70.3,304.7 70.2,304.5 70.1,304.5 70.2,329.4 125.9,329.4 125.9,323.9 131.3,329.4 155.6,329.4 155.6,273.8 
		150.2,273.8 155.6,268.2 155.6,242.5 101.4,242.5 101.4,248.6 95.4,242.5 70.2,242.5 70.2,298.8 75.7,298.8 70.1,304.5 70.1,304.5 
			"/>
	<rect x="106" y="255.6" class="st4" width="38.1" height="17.3"/>
	<polygon class="st4" points="106,255.6 105.9,255.6 105.9,273 144.2,273 144.2,255.4 105.9,255.4 105.9,255.6 106,255.6 106,255.7 
		143.9,255.7 143.9,272.7 106.1,272.7 106.1,255.6 106,255.6 106,255.7 	"/>
	<rect x="83.1" y="300.1" class="st4" width="37.4" height="16.6"/>
	<polygon class="st4" points="83.1,300.1 83,300.1 83,316.9 120.7,316.9 120.7,299.9 83,299.9 83,300.1 83.1,300.1 83.1,300.2 
		120.4,300.2 120.4,316.6 83.2,316.6 83.2,300.1 83.1,300.1 83.1,300.2 	"/>
	<rect x="126.8" y="279" class="st4" width="17.3" height="38.2"/>
	<polygon class="st4" points="126.8,279 126.7,279 126.7,317.4 144.2,317.4 144.2,278.8 126.7,278.8 126.7,279 126.8,279 
		126.8,279.1 143.9,279.1 143.9,317.1 127,317.1 127,279 126.8,279 126.8,279.1 	"/>
	<rect x="83.1" y="255.3" class="st0" width="17.5" height="39.5"/>
</g>
</svg>
