<?xml version="1.0" encoding="utf-8"?>
<!-- Generator: Adobe Illustrator 19.2.1, SVG Export Plug-In . SVG Version: 6.00 Build 0)  -->
<svg version="1.1" id="layer" xmlns="http://www.w3.org/2000/svg" xmlns:xlink="http://www.w3.org/1999/xlink" x="0px" y="0px"
	 viewBox="0 0 652 652" style="enable-background:new 0 0 652 652;" xml:space="preserve">
<style type="text/css">
	.st0{fill:#ED1D24;}
	.st1{fill:#757668;}
	.st2{fill:#EE322D;}
	.st3{clip-path:url(#SVGID_2_);fill:url(#SVGID_3_);}
	.st4{fill:#005B76;}
	.st5{fill-rule:evenodd;clip-rule:evenodd;fill:#005B76;}
	.st6{fill-rule:evenodd;clip-rule:evenodd;fill:#F99D28;}
	.st7{fill-rule:evenodd;clip-rule:evenodd;fill:#AF2A30;}
	.st8{fill-rule:evenodd;clip-rule:evenodd;fill:#FFFFFF;}
	.st9{fill:#FFFFFF;}
</style>
<g>
	<path class="st0" d="M504.8,287.8l16.2,36.8l0.1-36.8h7.1v33.8H543v4.9h-28.4l-4.9-10.3h-8.1v-4.6h6.6l-6.6-14.4v-9.3H504.8z
		 M501.6,316.1h-8.3l-4.8,10.3h-13.3v-38.3h7.6v37.2l16.9-37.5h1.9v9.3l-0.3-0.8l-6.2,15.2h6.5V316.1z M318.4,326.6v-2.7l1.6,2.6
		L318.4,326.6z M318.4,320.1c3.1,5.6,10,7.3,15.5,7.4c6.9,0.1,13-3.4,15-6.1c3.4-4.9,2.3-21,2.3-29.1c11.4-0.8,22.9,1,21.5,15.9
		c-1.4,13.6-10.7,15.2-23.1,14.7c-0.8,1.5-2.2,2.7-4.2,3.6c29.9,2.3,31.7-6.9,34.9-14.2v14.2l31.1,0.2v-28l23.8,27.8h5.8v-34.2h13.1
		v34.2h7.7v-34.1h14.1v-4.2h-40.7v27.7l-23.8-27.7H406v34.2h-19.3v-13.6H403v-4.1h-16.3l0.1-12.5h17v-4.1h-24.1v12.9
		c-1-2.2-2.2-4.5-3.6-6.4c-6.2-7.7-18-6.2-31.7-6.2v19.2c0,6.5-0.6,15.4-10.4,15.5c-8.5,0.1-10.2-5-10.5-13.5
		c0.1-5.7-0.2-15-0.2-21.2h-4.9V320.1z M318.4,288.5v31.6c-1.2-2-1.7-4.4-1.7-7.4v-24.3H318.4z M318.4,323.9l-9.1-14.2
		c4.9-2.7,7.4-7.1,5.8-13.5c-1.6-5.9-5.5-7.3-12.9-7.4h-0.6v3.4h2.9c4.4,1.7,5,11.3,1.2,13.6c-0.9,0.7-2.4,0.9-4.1,1v4.5h0.8
		l9.7,15.5l6.3-0.3V323.9z M301.7,288.8v3.4h-6.5v14.5c1.5,0,4.2,0.2,6.5,0.1v4.5h-6.5v15.5h-7.7l0.1-38.1H301.7z M272.7,312.2
		c1.7,0,3.5-0.1,5-0.4c0.6-0.1,3.4-1.3,3.7-1.5c6.4-4,6.4-16,0-20c-1.9-1.1-5.1-1.6-8.7-1.7v4h2.3c5.2,0.8,5.7,8.8,3.4,12.9
		c-1,1.8-3.4,2.5-5.7,2.7V312.2z M272.7,288.6v4h-7.1v15.5c1.7,0.1,4.5,0.3,7.1,0.1v4c-1.4,0-2.8,0-4.1-0.1h-3v14.9h-6.5v-38.1
		C262.9,288.8,268.1,288.5,272.7,288.6"/>
	<path class="st1" d="M566,300.9c0,0,0.2,0.4,1.3,1.2c1.1,0.8,1.5,0.9,1.5,0.9s-0.3,1.2-0.3,3.1c0,2,0.8,5.7,0.8,5.6
		c0-0.1-1.2-1.5-2.3-4.7C565.8,303.4,566,300.9,566,300.9"/>
	<path class="st1" d="M559.4,310.5c0,0,0.5-0.7,0.7-1.6c0.2-0.9,0.2-1.6,0.2-1.6s0.9-0.1,2.1-1.1c1.2-1,2-1.9,2-1.9
		s-0.3,2.2-1.7,3.9C560.8,310.7,559.4,310.5,559.4,310.5"/>
	<path class="st1" d="M564.6,308.5c1,0,1,6.7,1,6.6c0-0.1,4.1,2.2,4.1,4.3c0,2.8-5.1,4.7-5.1,4.7s-0.3,2.3-0.8,4.5
		c-0.5,2.2-1,5.1-1,5.1s-0.3-2.2-0.3-4.4v-3.4c0,0-2.7,0.9-2.7,2.9s0.7,1.4,0.7,2.5s-0.7,2.4-0.7,2.4s0.3-2-1.5-3.1
		c-1.8-1.1-1.3-3.1,0.1-3.9c1.4-0.8,4-1.8,4-1.8s0.1-1.9,0.1-4.4c0-2.5,0.1-3.7,0.1-3.7s-4.8-0.7-4.9-2.4c0-0.4,1.3-0.6,2.8-0.6
		c1.1,0,2.4,0.3,2.4,0.3S564,308.5,564.6,308.5 M565.5,317.3c0,0-0.2,2-0.4,3.5c-0.2,1.5-0.4,2.3-0.4,2.3s2.9-0.9,3-3.2
		C567.9,317.8,565.5,317.3,565.5,317.3"/>
	<path class="st1" d="M578.6,296.5v3.6c0,0,0.3-0.9,4.6-2.3c4.3-1.5,7-1.6,7-1.6L578.6,296.5z"/>
	<path class="st1" d="M581.6,302.3v-2.2c0,0,1.8-0.3,3.5-0.3c3,0,4.9,0.6,4.9,0.6s-0.9-0.1-1.7-0.1s-1,0.2-1,0.2s0.5,1.4-0.5,1.8
		c-1,0.4-1.1,0.3-1.5,0.4c-0.4,0.1-1,0.1-1,0.1l0.6-0.6c0,0,0.2-0.1-0.2-0.5c-0.4-0.4-0.2-1-0.2-1s-0.4,0.3-1.4,0.7
		C582.3,301.9,581.6,302.3,581.6,302.3"/>
	<path class="st1" d="M586.3,316.5h2.9c0,0,1.5-1.7,2-1.7c0.7,0,1,1.2,1.8,1.2c0.2,0,0.8-0.9,1.3-0.9c0.8,0,0.8,1.4,1.1,1.4h0.8v0.2
		h-2.5c0,0-0.2,0.5-0.7,0.5c-0.5,0-1.1-0.6-1.1-0.6h-5.6V316.5z"/>
	<path class="st1" d="M594.9,317.6c0,0-0.8,1.1-2.9,1.1c-1.8,0-2.6-0.8-3.1-1.1c0,0,0,0,0,0c-0.1-0.1-0.3-0.1-0.5-0.1
		c-0.2,0-0.1,0.2,0.1,0.2c0.2,0,0.2,0.1,0.3,0.1c0,0,0,0,0,0l0,0c0.1,0.2,0.2,0.4,0.5,0.8c0.7,0.9,2.1,1.5,2.7,1.5
		c0.6,0,1.3-0.2,2.4-1.2C595.2,318.1,594.9,317.6,594.9,317.6"/>
	<path class="st1" d="M575.7,320.2c0,0,10,4.7,14.8,4.7c2.8,0,3-0.5,3.9-1.6c0.9-1.1,6.3-8.5,7.3-13.6c1.1-5.1,1.4-6.5,1.4-6.5
		s0.4,5.4-1.5,10.6c-1.8,5.3-6.1,10.8-7,11.7c-0.9,0.9-2.3,1.1-5.1,0.8c-2.8-0.3-7.9-2.1-10.2-3.8
		C576.9,320.8,575.7,320.2,575.7,320.2"/>
	<path class="st1" d="M601.3,337.3v-3.2c0-1.3,0.8-2.6,2-3.5c1.2-0.9,2.2-1,2.2-3.8c0-2.7-0.1-2.4-0.1-3.6s0.9-2.4,2.1-2.4
		c1.2,0,2.5,1.6,2.5,1.6s-2.4,0-2.8,3s-0.4,3.9-1.5,5.8c-1.1,1.8-2.1,2.6-2.9,3.7C601.9,336,601.3,337.3,601.3,337.3"/>
	<path class="st1" d="M609.3,326.5l1.7,1.1c0,0,0.1-0.8,1-1.8s1.3-1.3,1.3-1.3s-0.6-0.3-2.2,0.4
		C609.6,325.7,609.3,326.5,609.3,326.5"/>
	<path class="st1" d="M607.1,332.1l2.2,1.5c0,0,0.4-1.4,1.8-3c1.3-1.5,2.1-1.8,2.1-1.8s-1.6-0.3-3.5,0.9
		C607.7,331,607.1,332.1,607.1,332.1"/>
	<path class="st1" d="M621,299.6c0,0,0.1-4.9-2.1-4.9c-1.6,0-4.2,2.3-7.7,13.6c-2.1,6.9,0.1,10.9,0.1,10.9s0.6-7.6,1.8-10.2
		c1.1-2.6,4.2-10.4,6.5-10.4C620.6,298.6,621,299.6,621,299.6"/>
	<path class="st1" d="M602,297.9c0,0-5.8-0.6-6.2,5.1c-0.1,1.5,0.2,1.4,0.2,4c0,2.6,0,2.7,0,3.3c0,0.6,0.3,1.5-1.4,1.5h-5.9
		c-0.6,0-0.9,0.3-0.3,0.5c0.7,0.2,1,0.3,1.5,0.5c0.5,0.3,0.9,0.4,1.4,0.1c0.4-0.2,0.5-0.4,1.4-0.4c0.9,0,0.8,0,1.1,0.3
		c0.3,0.3,0.4,0.3,0.9,0.3c0.5,0,0.8-0.2,1.4-0.9c0.6-0.6,1-2.3,1.1-5.2c0.2-2.9,0.3-5.4,1.4-7C599.9,298.6,602,297.9,602,297.9"/>
	<path class="st1" d="M601.8,301.2c0-0.8-0.6-1.4-1.4-1.4c-0.8,0-1.4,0.6-1.4,1.4c0,0.4,0.2,0.8,0.6,1.1c0,0.1-0.1,0.1-0.1,0.2
		c-0.3,0.3-0.8,0.5-0.8,0.5s0.4,0.2,1-0.1c0.3-0.1,0.6-0.2,0.8-0.3c0.1,0,0.2,0,0.3-0.1c0,0,0,0,0,0l0,0
		C601.4,302.4,601.8,301.9,601.8,301.2"/>
	<path class="st1" d="M602.2,294.5V291l-3-0.6c0,0,1.6,0.6,2.3,1.9C602.2,293.3,602.2,294.5,602.2,294.5"/>
	<path class="st0" d="M603.8,288.9c0,0.6-0.2,0.9-0.8,1.7c-0.6,0.8-0.8,1.9-1.7,1.3c-0.9-0.6-3.6-2.4-15.7-2.4
		c-7.9,0-12.5,1.5-14.1,1.5c-1.6,0-3.7-1-3.7-3.5c0-2.5,0.7-3,0.9-3c0.1,0,1.2,3.9,5.5,3.9c4.3,0,10.3-2.9,18.3-2.9
		C598.9,285.6,603.8,288.6,603.8,288.9"/>
	<path class="st1" d="M588.5,284.7c0,0-0.7-5.6-3.4-5.6c-0.9,0-1.5,0.5-2.2,0.5c-1.9,0-3.6-3.7-6.3-3.7c-1.2,0-2,0.4-2.7,0.4
		c-1.1,0-1.9-1.3-1.9-1.3s0,3.9,4.6,3.9c1.1,0,2.3-0.1,3.5,0.6C584.9,282.4,588.5,284.7,588.5,284.7"/>
	<path class="st1" d="M586.5,274.4c0,0-1,1.6,2.5,3.8c3.5,2.2,3.8,1.4,4.7,3.2c0.9,1.7,0.9,2,0.9,2s0.8-1,0.8-2.5
		c0-1.6-0.9-2.6-3.2-3.3c-2.3-0.7-2.6-0.7-3.5-1.3c-0.4-0.3-0.7-0.7-1.1-1.1C587.1,274.7,586.5,274.4,586.5,274.4"/>
	<path class="st1" d="M598.1,279.3c0,0,0.5,1.3,1,2.3c0.5,1,1.2,3,2.4,3c1.1,0,1.3-2,0-2.6c-1.3-0.7-1.6-0.9-2.2-1.4
		C598.6,280,598.1,279.3,598.1,279.3"/>
	<path class="st2" d="M569.2,293.1c0,0-5.7-5.7-9.9-5.7c-4.8,0-5.2,2.8-10.7,2.8h-0.1c-5.1,0-5.3-3-5.3-3s-1.3,1.4-1.8,2.9
		c-0.6,1.7-0.3,3.6,2.2,3.6c2.7,0,6.7-3.4,12.7-3.4h2.5c0,0,1.1,1.4,3,2c1.9,0.6,3.2,0.7,3.5,0.7c0.3,0,0.3,0.8-0.1,0.8
		c-0.4,0-2,0.2-3.3,0.2c-1.3,0-3.7-0.5-6.2-0.5s-4.8,0.1-6.4,1c-1.6,0.9-1.7,1.5-1.8,2.5c-0.1,1,0.3,3,0.3,3s1.7-2.8,5.2-2.8
		c2.5,0,3.8,0.8,5.6,0.8C565.5,298,569.2,293.1,569.2,293.1"/>
</g>
<g>
	<defs>
		<rect id="SVGID_1_" x="44.6" y="341" width="576.4" height="36.4"/>
	</defs>
	<clipPath id="SVGID_2_">
		<use xlink:href="#SVGID_1_"  style="overflow:visible;"/>
	</clipPath>
	
		<linearGradient id="SVGID_3_" gradientUnits="userSpaceOnUse" x1="-270.5428" y1="751.4468" x2="-263.6603" y2="751.4468" gradientTransform="matrix(83.7414 0 0 -81.631 22700.2559 61700.5313)">
		<stop  offset="0" style="stop-color:#39569B"/>
		<stop  offset="0.2269" style="stop-color:#39569B"/>
		<stop  offset="0.3214" style="stop-color:#7B5278"/>
		<stop  offset="0.477" style="stop-color:#F04C3B"/>
		<stop  offset="0.6211" style="stop-color:#F47C53"/>
		<stop  offset="0.6747" style="stop-color:#F47F57"/>
		<stop  offset="0.7253" style="stop-color:#F58862"/>
		<stop  offset="0.7748" style="stop-color:#F69675"/>
		<stop  offset="0.8235" style="stop-color:#F8AB90"/>
		<stop  offset="0.8718" style="stop-color:#FAC5B3"/>
		<stop  offset="0.9189" style="stop-color:#FDE5DC"/>
		<stop  offset="0.9525" style="stop-color:#FFFFFF"/>
		<stop  offset="1" style="stop-color:#FFFFFF"/>
	</linearGradient>
	<rect x="44.6" y="341" class="st3" width="576.4" height="36.4"/>
</g>
<polygon class="st4" points="75.4,326.5 86.4,286.6 100.3,286.6 89.4,326.5 "/>
<polygon class="st4" points="147.2,326.5 158.2,286.6 172.1,286.6 161.2,326.5 "/>
<polygon class="st4" points="219,326.5 230,286.6 243.9,286.6 233,326.5 "/>
<g>
	<path class="st5" d="M134.2,300.3h14c1.9-9-4.1-13.6-17.8-13.6c-15.9,0-26.6,7.6-30.3,20.7c-3.3,11.9,3.2,19.2,18.1,19.2
		c15.1,0,24-4.6,27.8-14.8h-14c-2,4.5-5.6,6.9-10.6,6.9c-6.8,0-9.4-4.2-7.3-11.8c2.2-7.9,7.3-12.2,14.1-12.2
		C132.5,294.6,134.5,296.5,134.2,300.3"/>
	<path class="st5" d="M206,300.3h14c1.9-9-4.1-13.6-17.8-13.6c-15.9,0-26.6,7.6-30.3,20.7c-3.3,11.9,3.2,19.2,18.1,19.2
		c15.1,0,24-4.6,27.8-14.8h-14c-2,4.5-5.6,6.9-10.6,6.9c-6.8,0-9.4-4.2-7.3-11.8c2.2-7.9,7.3-12.2,14.1-12.2
		C204.3,294.6,206.3,296.5,206,300.3"/>
	<path class="st6" d="M37,279c14-13.6,31-17.1,37.8-7.8c6.8,9.3,0.8,27.9-13.2,41.4c-14,13.6-31,17.1-37.8,7.8
		C17,311.2,22.9,292.6,37,279"/>
	<path class="st7" d="M46.2,271.8c-1.5,1.1-3.1,2.4-4.6,3.9c-12.3,11.8-17.4,28-11.3,36.1c6.2,8.1,21.4,5.2,33.9-6.8
		c6.7-6.4,11.3-13.8,13.1-20.7c0.6-5.1-0.2-9.6-2.6-13C69.3,264,57.8,264.6,46.2,271.8"/>
	<path class="st8" d="M53.2,319.3c-6.6,4.8-13.4,7.2-20,6.2c2.8,0.1,5-2.9,6.9-6.9c1.9-4.1,3-8,3.9-11.6c1.3-5.7,1.4-9.7,0.7-10.6
		c-1.1-1.4-3.7-1.1-6.6,0.5c-1.4,0.7-3.2,0.2-1-2.3c2.2-2.6,10.9-8.8,14.1-9.8c3.5-1,7.4,0.3,6.1,4
		C56.3,291.6,44.2,322.5,53.2,319.3 M63.1,271.4c1.6,1.6,0.6,5.1-2.1,7.8c-2.8,2.7-6.5,3.7-8.1,2.1c-1.7-1.6-0.7-5.1,2.1-7.9
		C57.8,270.7,61.5,269.8,63.1,271.4"/>
	<polygon class="st9" points="70.7,351.2 74.6,351.2 74.6,361.9 79.5,361.9 79.5,365.1 70.7,365.1 	"/>
	<rect x="100" y="351.2" class="st9" width="3.9" height="13.9"/>
	<polygon class="st9" points="126,351.2 134.7,351.2 134.7,354.2 129.8,354.2 129.8,356.7 134.4,356.7 134.4,359.6 129.8,359.6 
		129.8,365.1 126,365.1 	"/>
	<polygon class="st9" points="155.8,351.2 164.6,351.2 164.6,354.2 159.6,354.2 159.6,356.7 164.3,356.7 164.3,359.6 159.6,359.6 
		159.6,362 164.6,362 164.6,365.1 155.8,365.1 	"/>
	<rect x="212" y="351.2" class="st9" width="3.9" height="13.9"/>
	<path class="st9" d="M237.4,351.2h3.8l5.4,7.2c0.1,0.2,0.6,1,1.3,2.5c-0.1-1.1-0.2-2-0.2-2.7v-6.9h3.7v13.9h-3.7l-5.4-7.2
		c-0.1-0.2-0.6-1-1.3-2.4c0.1,1.1,0.2,2,0.2,2.7v6.9h-3.8V351.2z"/>
	<path class="st9" d="M276.9,362.5c1.1,0,1.8-0.6,1.8-1.4c0-1.1-0.8-1.4-2.4-1.8c-2.6-0.7-3.8-1.7-3.8-3.9c0-2.6,1.9-4.5,4.9-4.5
		c1.6,0,3,0.4,4.2,1.2l-1.2,2.7c-0.9-0.7-1.9-1.1-2.7-1.1c-1,0-1.6,0.5-1.6,1.2c0,1,1,1.2,2.3,1.5c2.5,0.7,3.9,1.6,3.9,4.1
		c0,2.9-2.1,4.9-5.5,4.9c-2,0-3.5-0.6-5.1-2l1.8-2.8C274.6,361.9,275.7,362.5,276.9,362.5"/>
	<path class="st9" d="M306.6,351.2v7.6c0,2.5,0.5,3.5,2.5,3.5c2.4,0,2.5-1.4,2.5-4.4v-6.7h3.9v8.3c0,4.2-1.8,6-6.4,6
		c-2.4,0-4.1-0.5-5.1-1.7c-1.1-1.3-1.2-2.9-1.2-5.1v-7.5H306.6z"/>
	<path class="st9" d="M336.8,351.2h4.3c2,0,3.5,0,4.7,0.9c1,0.8,1.6,2,1.6,3.4c0,2.2-1.1,3.5-3.2,4l3.9,5.6h-4.4l-3.3-5.5v5.5h-3.7
		V351.2z M341.2,357.8c1.6,0,2.4-0.5,2.4-1.7c0-1.5-0.7-1.9-2.4-1.9h-0.8v3.7H341.2z"/>
	<path class="st9" d="M372.1,351.2h4.9l4.9,13.9H378l-0.7-2.5h-5.5l-0.7,2.5h-3.9L372.1,351.2z M376.5,359.9l-1.5-4.6
		c-0.1-0.2-0.2-0.8-0.5-1.9c-0.3,1-0.4,1.7-0.5,1.9l-1.4,4.6H376.5z"/>
	<path class="st9" d="M401.7,351.2h3.8l5.4,7.2c0.1,0.2,0.6,1,1.3,2.5c-0.1-1.1-0.2-2-0.2-2.7v-6.9h3.7v13.9h-3.7l-5.4-7.2
		c-0.1-0.2-0.6-1-1.3-2.4c0.1,1.1,0.2,2,0.2,2.7v6.9h-3.8V351.2z"/>
	<path class="st9" d="M447.4,355.9c-1-1.1-2-1.7-3.3-1.7c-2.3,0-3.8,1.7-3.8,4c0,2.1,1.5,3.9,3.8,3.9c1.3,0,2.3-0.5,3.3-1.7v4.1
		c-1.2,0.6-2.4,0.9-3.7,0.9c-4.2,0-7.3-3.1-7.3-7.3c0-4.2,3-7.3,7.3-7.3c1.3,0,2.5,0.3,3.7,0.9V355.9z"/>
	<polygon class="st9" points="468.4,351.2 477.2,351.2 477.2,354.2 472.2,354.2 472.2,356.7 476.9,356.7 476.9,359.6 472.2,359.6 
		472.2,362 477.2,362 477.2,365.1 468.4,365.1 	"/>
</g>
</svg>
