<?xml version="1.0" encoding="UTF-8"?><svg id="Layer_1" xmlns="http://www.w3.org/2000/svg" viewBox="0 0 512 512"><defs><style>.cls-1,.cls-2{fill-rule:evenodd;}.cls-1,.cls-3{fill:#143a72;}.cls-2,.cls-4{fill:#f27930;}</style></defs><g><path class="cls-2" d="M91.17,117.31l27.56,23.9c9.02,8.49,13.74,20.59,12.85,32.94,0,29.1-29.98,42.83-40.19,67.23-3.15,6.92-4.64,14.48-4.33,22.07,.23,2.85,1.99,14.74,5.45,15.55,25.91,6.07,47.14-12.14,38.81-41.21-1.04-5.83-3.46-11.34-7.04-16.06h1.63l27.56,24.33c5.18,5.07,8.35,11.85,8.91,19.07,1.29,21.36-14.98,39.72-36.34,41.01-.64,.04-1.29,.06-1.94,.07-8.3,.12-16.36-2.75-22.7-8.11l-31.63-27.61c-8.33-7.6-12.57-18.68-11.44-29.9,0-27.42,22.22-43.28,32.3-66.85,3.94-9.24,5.82-19.22,5.53-29.26,1.06-9.06-1.04-18.21-5.96-25.9l.97-1.28Z"/><path class="cls-1" d="M159.18,328.06c.09,.08,30.58,26.1,33.1,28.29l-1.65,.47c-9.19-7.36-20.61-11.38-32.38-11.4-11.48-.08-22.87,2.15-33.47,6.55-4.89,1.8-9.74,3.68-14.56,5.63-7.18,3.16-15.03,4.5-22.85,3.9-12.27-2.8-23.43-9.17-32.08-18.31l-26.8-23.12c.12,.08,1.53-.48,1.65-.41,14.77,9.29,32.37,13.01,49.64,10.49,7.5-1.03,35.09-14.45,43.22-14.51,5.1-.44,10.23-.18,15.26,.78,7.75,2.29,14.89,6.27,20.93,11.63"/></g><g><g><path class="cls-4" d="M182.27,333.52c6.38-.38,11.2-1.03,11.77-3.35,.51-2.59,.7-5.22,.56-7.85v-59.82c.13-2.63-.06-5.27-.56-7.86-.57-2.31-5.39-2.96-11.77-3.35v-4h44.65v4c-6.38,.38-11.2,1.03-11.77,3.35-.51,2.59-.71,5.23-.57,7.86v60.69c0,8.76,5.24,9.54,16.74,9.54,18.15,0,20.85-7.09,26.66-18.56h3.98l-4.25,23.34h-75.43v-3.98Z"/><path class="cls-4" d="M303.84,322.31c-.13,2.63,.06,5.27,.56,7.85,.56,2.32,5.39,2.97,11.78,3.36v4h-44.69v-4c6.38-.38,11.2-1.03,11.76-3.35,.51-2.58,.71-5.22,.57-7.85v-59.82c.13-2.63-.06-5.28-.57-7.86-.56-2.31-5.37-2.96-11.76-3.35v-4h44.69v4c-6.39,.38-11.21,1.03-11.78,3.35-.51,2.59-.7,5.23-.56,7.86v59.82Z"/><path class="cls-4" d="M326.96,247.29h69.78v20.75h-3.83c-2.12-9.15-5.67-15.99-15.6-15.99h-18.01v38.67h13.48c6.29,.81,12.04-3.62,12.86-9.91,.11-.82,.12-1.64,.05-2.46h3.83v30.03h-3.87c-.42-7.1-3.4-12.89-12.91-12.89h-13.48v26.81c-.13,2.63,.06,5.27,.57,7.85,.56,2.32,5.39,2.97,11.76,3.35v4h-44.64v-4c6.38-.38,11.2-1.03,11.77-3.35,.51-2.59,.7-5.22,.56-7.85v-59.82c.13-2.63-.06-5.27-.56-7.86-.57-2.31-5.39-2.96-11.77-3.35v-3.99h0Z"/><path class="cls-4" d="M403.42,333.52c6.23-.38,11.19-1.03,11.77-3.35,.51-2.59,.7-5.22,.56-7.85v-59.82c.13-2.63-.06-5.27-.56-7.86-.58-2.31-5.53-2.96-11.77-3.35v-4h69.64v20.75h-3.83c-2.13-9.16-5.52-15.98-15.46-15.98h-18.01v36.06h11.76c6.16,.86,11.86-3.44,12.72-9.61,.13-.92,.14-1.85,.04-2.76h3.83v30.03h-3.83c.72-6.39-3.88-12.16-10.28-12.88-.82-.09-1.66-.1-2.48-.01h-11.76v29.26c0,9.8,5.2,10.57,16.88,10.57,18.01,0,20.71-7.09,26.66-18.56h3.84l-4.25,23.34h-75.42l-.04-3.98Z"/></g><path class="cls-3" d="M481.15,224.95c-4.75-.65-6.53-3.34-12.02-11.14l-26.28-37.59,20.81-28.35c2.86-3,6.68-4.91,10.8-5.37,1.85-.72,3.15-2.41,3.36-4.39h-29.09c.04,2.12,1.37,3.99,3.35,4.72,3.1,1.21,4.86,3.96,1.94,8.03l-15.22,20.28-13.13-19.64c-4.18-6.25-1.73-8.62,2.15-9.2,1.84-.58,3.1-2.28,3.12-4.2h-38.56c.01,2.09,1.39,3.92,3.39,4.51,4.29,1.14,7.97,3.91,10.25,7.72l21.73,32.77-20.95,29c-2.19,3.87-5.07,7.3-8.5,10.13-1.89,1.37-4.43,1.42-6.37,.13h0c-2.67-2.51-4.71-5.61-5.95-9.06-5.13-12.49-21.93-55.28-30.26-76.74h-9.02c-11.66,28.61-28.61,70.9-33.58,80.62-2.1,4.35-6.29,7.32-11.09,7.86,0,0-10.26,1.69-11.33-5.77-.16-1.54-.16-3.18-.16-5.48v-58.95c0-7.39,2.38-11.6,9.4-12.54h0c1.88-.52,3.15-2.27,3.05-4.22h-25.05l-34.98,67.5-33.43-67.5h-26.87s-.08,3.85,2.74,4.07h0c5.4,.36,9.73,2.29,10.49,11.5v56.35c-.05,2.87-.27,5.74-.64,8.59-.5,3.36-2.72,5.2-7,6.07h0c-2.23,.33-3.87,2.25-3.86,4.5h29.48v-.36c-.3-2.03-1.82-3.67-3.83-4.11-4.33-.82-6.69-2.65-7.12-6.07-.5-2.83-.72-5.71-.65-8.59v-47.86h.27l32.65,66.99h3.11l33.56-64.9h.39v49.55c.12,2.66-.05,5.32-.52,7.93-.38,1.73-2.97,2.56-6.69,3.01-2.09,.43-3.59,2.27-3.61,4.4h66.75c-.14-2.15-1.58-4-3.64-4.64-3.4-1.32-4.26-4.66-2.75-8.89l5.54-15.47h33.88l5.69,15.21c1.68,4.33,1.38,7.67-2.16,9.06-2.24,.52-3.89,2.43-4.08,4.72h54.62c.11-2.28-1.41-4.32-3.63-4.86h0c-2.33-1.4-2.66-4.69,1.73-10.83l18.07-24.98,18.34,26.54c4.57,6.81,2.6,9.1-.74,9.83-1.98,.55-3.4,2.29-3.53,4.33h37.98c.11-1.73-.79-3.36-2.3-4.2m-151.35-30.65l14.94-38.02h.27l13.76,37.98-28.96,.04Z"/><g><rect class="cls-3" x="188.41" y="362.38" width="5.77" height="31.85"/><path class="cls-3" d="M227.2,388.3h-.09l-9.54-25.7-.09-.23h-9.19v31.85h5.78v-25.93h.04l9.74,25.71,.08,.23h8.96v-31.84h-5.7v25.92Z"/><path class="cls-3" d="M258.05,375.86c-5.28-1.65-6.42-2.53-6.42-4.98,0-3.03,2.8-3.65,5.15-3.65,2.6,0,8.67,.62,8.74,.62h.36l.21-4.95-.29-.05c-3.07-.61-6.18-.96-9.3-1.05-6.81,0-10.57,3.23-10.57,9.08s2.83,7.72,9.21,9.79c4.54,1.39,6.07,2.2,6.07,4.4,0,2.97-1.61,4.24-5.41,4.24-2.78,0-8.67-.67-8.75-.67l-.36-.04-.32,5.09,.31,.05c3.15,.54,6.34,.86,9.54,.95,7.43,0,10.74-3.03,10.74-9.81,0-5.54-2.7-7.01-8.88-9.07"/><path class="cls-3" d="M295.78,383.97c0,3.68-1.69,5.2-5.83,5.2s-5.69-1.5-5.69-5.2v-21.59h-5.74v21.59c0,7.4,3.53,10.71,11.43,10.71s11.56-3.3,11.56-10.71v-21.59h-5.73v21.59Z"/><path class="cls-3" d="M337.93,372.7c0-6.84-3.63-10.3-10.79-10.3h-11.55v31.85h5.7v-10.94h6.16l4.4,10.98h6.3l-5.08-12.38c3.35-1.77,5.28-5.41,4.86-9.17m-16.64-4.98h5.85c2.53-.2,4.73,1.69,4.93,4.22,.02,.28,.02,.56-.01,.84,.36,2.56-1.42,4.93-3.98,5.29-.28,.04-.56,.05-.85,.04h-5.95v-10.39Z"/><path class="cls-3" d="M366.31,362.38h-10.14l-7.61,31.43-.1,.42h5.75l1.62-6.43h10.55l1.84,6.43h5.75l-7.58-31.58-.07-.27Zm-4.55,5.11l3.47,14.94h-8.18l3.57-14.94h1.14Z"/><path class="cls-3" d="M404.74,388.3h-.14l-9.54-25.7v-.22h-9.19v31.85h5.77v-25.93l9.76,25.71,.09,.23h8.97v-31.86h-5.74v25.92Z"/><path class="cls-3" d="M443.45,388.63c-.05,0-5.44,.58-7.52,.58-5.09,0-6.63-2.53-6.63-10.86s1.52-10.95,6.5-10.95c2.34,0,7.59,.62,7.65,.62l.36,.04,.22-5.12-.29-.05c-2.86-.59-5.76-.94-8.67-1.05-9.74,0-11.73,6.61-11.73,16.47s1.97,16.37,11.73,16.37c2.87-.1,5.74-.39,8.57-.87l.3-.05-.16-5.2-.35,.07Z"/><path class="cls-3" d="M476.11,367.71v-5.33h-19.64v31.85h19.64v-5.37h-13.95v-7.85h11.27v-5.2h-11.27v-8.05l13.95-.03Z"/></g></g></svg>