<?xml version="1.0" encoding="UTF-8" standalone="no"?>
<svg
   xmlns:dc="http://purl.org/dc/elements/1.1/"
   xmlns:cc="http://creativecommons.org/ns#"
   xmlns:rdf="http://www.w3.org/1999/02/22-rdf-syntax-ns#"
   xmlns:svg="http://www.w3.org/2000/svg"
   xmlns="http://www.w3.org/2000/svg"
   xmlns:sodipodi="http://sodipodi.sourceforge.net/DTD/sodipodi-0.dtd"
   xmlns:inkscape="http://www.inkscape.org/namespaces/inkscape"
   sodipodi:docname="Motilal Oswal Logo.svg"
   inkscape:version="1.0 (4035a4fb49, 2020-05-01)"
   id="svg719"
   version="1.1"
   viewBox="0 0 64 18"
   height="18mm"
   width="64mm">
  <defs
     id="defs713">
    <clipPath
       clipPathUnits="userSpaceOnUse"
       id="clipPath414">
      <path
         d="m 374.3748,204.3111 c -9.2288,0 -16.7559,7.5052 -16.7559,16.7076 0,9.2024 7.5271,16.7077 16.7559,16.7077 9.2287,0 16.7558,-7.5053 16.7558,-16.7077 0,-9.2024 -7.5271,-16.7076 -16.7558,-16.7076"
         clip-rule="evenodd"
         id="path412" />
    </clipPath>
    <radialGradient
       fx="0"
       fy="0"
       cx="0"
       cy="0"
       r="0.5"
       gradientUnits="userSpaceOnUse"
       gradientTransform="matrix(55.35955,0,0,55.35955,382.4176,228.3701)"
       spreadMethod="pad"
       id="radialGradient432">
      <stop
         style="stop-opacity:1;stop-color:#fefefe"
         offset="0"
         id="stop418" />
      <stop
         style="stop-opacity:1;stop-color:#fffefa"
         offset="0.05"
         id="stop420" />
      <stop
         style="stop-opacity:1;stop-color:#fffef8"
         offset="0.11"
         id="stop422" />
      <stop
         style="stop-opacity:1;stop-color:#fff585"
         offset="0.41"
         id="stop424" />
      <stop
         style="stop-opacity:1;stop-color:#fff212"
         offset="0.68"
         id="stop426" />
      <stop
         style="stop-opacity:1;stop-color:#fbb12f"
         offset="0.88"
         id="stop428" />
      <stop
         style="stop-opacity:1;stop-color:#fff212"
         offset="1"
         id="stop430" />
    </radialGradient>
  </defs>
  <sodipodi:namedview
     inkscape:window-maximized="1"
     inkscape:window-y="-8"
     inkscape:window-x="-8"
     inkscape:window-height="1002"
     inkscape:window-width="1920"
     showgrid="false"
     inkscape:document-rotation="0"
     inkscape:current-layer="g400"
     inkscape:document-units="mm"
     inkscape:cy="37.961804"
     inkscape:cx="119.66873"
     inkscape:zoom="5.6"
     inkscape:pageshadow="2"
     inkscape:pageopacity="0.0"
     borderopacity="1.0"
     bordercolor="#666666"
     pagecolor="#ffffff"
     id="base" />
  <metadata
     id="metadata716">
    <rdf:RDF>
      <cc:Work
         rdf:about="">
        <dc:format>image/svg+xml</dc:format>
        <dc:type
           rdf:resource="http://purl.org/dc/dcmitype/StillImage" />
        <dc:title></dc:title>
      </cc:Work>
    </rdf:RDF>
  </metadata>
  <g
     id="layer1"
     inkscape:groupmode="layer"
     inkscape:label="Layer 1">
    <g
       id="g400"
       transform="matrix(0.35277777,0,0,-0.35277777,-59.754941,220.4252)">
      <g
         transform="matrix(0.98553501,0,0,0.98553501,-173.47275,385.25211)"
         id="g402">
        <path
           d="M 348.9245,242.6026 H 530.9116 V 191.7958 H 348.9245 Z"
           style="fill:#fbb12f;fill-opacity:1;fill-rule:evenodd;stroke:none"
           id="path404" />
        <path
           d="m 522.2166,202.9584 h -81.1012 l 77.1037,-6.2864 z"
           style="fill:#ed3237;fill-opacity:1;fill-rule:evenodd;stroke:none"
           id="path406" />
        <g
           id="g408">
          <g
             id="g410"
             clip-path="url(#clipPath414)">
            <g
               id="g416">
              <path
                 d="m 374.3748,204.3111 c -9.2288,0 -16.7559,7.5052 -16.7559,16.7076 0,9.2024 7.5271,16.7077 16.7559,16.7077 9.2287,0 16.7558,-7.5053 16.7558,-16.7077 0,-9.2024 -7.5271,-16.7076 -16.7558,-16.7076"
                 style="fill:url(#radialGradient432);fill-rule:evenodd;stroke:none"
                 id="path434" />
            </g>
          </g>
        </g>
        <path
           d="m 367.3621,210.6547 c 0.815,0.0289 1.6297,0.0539 2.4446,0.0539 0.8397,0 1.679,-0.025 2.5186,-0.0539 v 0.3521 h -0.2219 c -1.2844,0 -1.8768,0.8696 -1.8768,2.6087 0,0.2982 0.0249,0.5961 0.0493,0.9193 l 0.716,8.149 4.8892,-11.9007 h 0.4195 l 4.9139,12.0249 0.6667,-8.9689 c 0.0247,-0.2732 0.0247,-0.4971 0.0247,-0.7205 0,-1.3913 -0.4199,-2.0123 -1.679,-2.1118 v -0.3521 c 0.9876,0.0289 1.9505,0.0539 2.8641,0.0539 0.9383,0 1.8272,-0.025 2.6915,-0.0539 v 0.3521 c -1.4567,0.0745 -1.8765,0.7951 -2.0248,2.6087 l -0.6667,8.5218 c -0.0246,0.1738 -0.0246,0.3229 -0.0246,0.472 0,1.3167 0.494,1.9131 1.6543,1.9627 v 0.3475 c -0.6421,-0.0247 -1.2592,-0.0247 -1.8023,-0.0247 -0.5434,0 -1.0125,0 -1.457,0.0247 l -4.741,-11.5526 -4.6913,11.5526 c -0.5434,-0.0247 -1.1112,-0.0247 -1.7283,-0.0247 -0.6174,0 -1.2597,0 -1.9511,0.0247 v -0.3475 h 0.1486 c 0.7897,0 1.4317,-0.3725 2.0245,-1.1926 l -0.9383,-9.6148 c -0.1726,-1.8386 -0.8889,-2.7329 -2.2224,-2.7578 z m 21.3534,5.0961 c 0,-1.7745 0.8289,-3.3894 2.2927,-4.4189 0.8643,-0.6032 1.8873,-0.9255 2.9633,-0.9255 1.0934,0 2.0988,0.3223 2.9804,0.9436 1.4638,1.0293 2.2929,2.6263 2.2929,4.4008 0,1.7745 -0.8291,3.3716 -2.2929,4.4008 -0.8816,0.6214 -1.887,0.923 -2.9804,0.923 -1.076,0 -2.099,-0.3192 -2.9633,-0.923 -1.4638,-1.0292 -2.2927,-2.6263 -2.2927,-4.4008 z m 1.4993,0 c 0,3.07 1.5168,4.9153 3.7567,4.9153 2.2397,0 3.7565,-1.8453 3.7565,-4.9153 0,-3.0702 -1.5168,-4.9334 -3.7565,-4.9334 -2.2399,0 -3.7567,1.8632 -3.7567,4.9334 z m 16.8519,-2.9814 v 7.6665 h 1.5166 c 1.3756,0 2.0457,-0.426 2.1166,-1.3841 h 0.2466 v 2.4485 h -0.2466 c -0.1412,-0.5853 -0.7055,-0.6565 -1.8694,-0.6565 h -4.8856 c -1.1641,0 -1.7107,0.0712 -1.8518,0.6565 h -0.2469 v -2.4485 h 0.2469 c 0.0706,0.9581 0.7231,1.3841 2.0987,1.3841 h 1.5171 v -7.6665 c 0,-1.2776 -0.3529,-1.8454 -1.3232,-1.8633 v -0.2514 c 0.6704,0.021 1.3405,0.0386 2.0106,0.0386 0.6529,0 1.323,-0.0176 1.9931,-0.0386 v 0.2514 c -0.97,0.0179 -1.3227,0.5857 -1.3227,1.8633 z m 10.6084,8.0744 c -0.688,-0.0178 -1.3759,-0.0178 -2.046,-0.0178 -0.6701,0 -1.3405,0 -2.0106,0.0178 v -0.2483 c 0.97,-0.0178 1.3405,-0.5856 1.3405,-1.8632 v -5.9629 c 0,-1.2776 -0.3705,-1.8454 -1.3405,-1.8633 v -0.2514 c 0.6701,0.021 1.3405,0.0386 2.0106,0.0386 0.6701,0 1.358,-0.0176 2.046,-0.0386 v 0.2514 c -0.9703,0.0179 -1.3405,0.5857 -1.3405,1.8633 v 5.9629 c 0,1.2776 0.3702,1.8454 1.3405,1.8632 z m 3.2009,-10.1891 c 1.3229,0.021 2.628,0.0386 3.8976,0.0386 1.27,0 2.522,-0.0176 3.7392,-0.0386 l 0.529,2.1504 h -0.2469 c -0.2821,-1.1537 -1.0936,-1.7037 -2.4693,-1.7037 h -1.3402 c -1.1639,0 -1.3935,0.3192 -1.3935,1.4375 v 6.1934 c 0,1.2952 0.3883,1.8632 1.3759,1.8632 h 0.1409 v 0.2483 c -0.7583,-0.0178 -1.4814,-0.0178 -2.1869,-0.0178 -0.7056,0 -1.3933,0 -2.0458,0.0178 v -0.2483 c 0.97,-0.0178 1.3229,-0.5856 1.3229,-1.8632 v -5.9629 c 0,-1.2776 -0.3529,-1.8454 -1.3229,-1.8633 z m 13.43,4.8833 1.5168,4.4895 1.4814,-4.4895 z m -3.0186,-4.8833 c 0.4439,0.021 0.9025,0.0386 1.3609,0.0386 0.4586,0 0.9524,-0.0176 1.4462,-0.0386 v 0.2514 c -0.6349,0 -0.9524,0.2841 -0.9524,0.8164 0,0.1953 0.053,0.4261 0.1409,0.7098 l 0.8467,2.5733 h 3.3511 l 0.8643,-2.6087 c 0.0881,-0.2838 0.176,-0.5148 0.176,-0.7455 0,-0.4791 -0.2996,-0.7098 -0.917,-0.7453 v -0.2514 c 0.6174,0.021 1.1993,0.0386 1.7991,0.0386 0.582,0 1.1639,-0.0176 1.7459,-0.0386 v 0.2514 h -0.1057 c -0.635,0 -1.0403,0.4615 -1.3578,1.4196 l -2.9104,8.7665 h -1.023 l -2.8922,-8.5 c -0.388,-1.1359 -0.7937,-1.6682 -1.5726,-1.6861 z m 12.0044,0 c 1.3229,0.021 2.628,0.0386 3.8979,0.0386 1.2697,0 2.522,-0.0176 3.7389,-0.0386 l 0.529,2.1504 h -0.2469 c -0.2821,-1.1537 -1.0933,-1.7037 -2.4693,-1.7037 h -1.3402 c -1.1639,0 -1.3932,0.3192 -1.3932,1.4375 v 6.1934 c 0,1.2952 0.388,1.8632 1.3756,1.8632 h 0.1409 v 0.2483 c -0.7583,-0.0178 -1.4811,-0.0178 -2.1866,-0.0178 -0.7056,0 -1.3933,0 -2.0461,0.0178 v -0.2483 c 0.9703,-0.0178 1.3229,-0.5856 1.3229,-1.8632 v -5.9629 c 0,-1.2776 -0.3526,-1.8454 -1.3229,-1.8633 z m 16.3349,7.1345 c 0,-2.4843 1.1588,-4.7477 3.2103,-6.1863 1.2078,-0.847 2.6419,-1.2957 4.1479,-1.2957 1.531,0 2.9381,0.4518 4.1732,1.3206 2.0489,1.4417 3.2099,3.6771 3.2099,6.1614 0,2.4846 -1.161,4.72 -3.2099,6.1617 -1.2351,0.8685 -2.6422,1.292 -4.1732,1.292 -1.506,0 -2.9401,-0.445 -4.1479,-1.292 -2.0515,-1.4383 -3.2103,-3.6771 -3.2103,-6.1617 z m 2.0991,0 c 0,4.2982 2.1234,6.882 5.2591,6.882 3.136,0 5.2594,-2.5838 5.2594,-6.882 0,-4.2979 -2.1234,-6.9066 -5.2594,-6.9066 -3.1357,0 -5.2591,2.6087 -5.2591,6.9066 z m 16.196,-7.3471 h 0.2466 c 0.0179,0.2336 0.1942,0.3932 0.4235,0.3932 0.5114,0 1.1815,-0.411 2.134,-0.411 1.7458,0 3.0863,1.2806 3.0863,2.842 0,0.8875 -0.4198,1.726 -1.1463,2.3071 -0.6489,0.519 -1.5361,0.974 -2.5044,1.5795 -0.8479,0.5297 -1.3051,1.26 -1.3051,1.9873 0,0.9581 0.7231,1.6152 1.8695,1.6152 1.1817,0 2.0106,-0.7101 2.2399,-1.9701 h 0.2469 v 2.3069 h -0.2469 c -0.0179,-0.2126 -0.1766,-0.3549 -0.4059,-0.3549 -0.3702,0 -0.9876,0.3549 -1.8868,0.3549 -1.5698,0 -2.7161,-1.1359 -2.7161,-2.6088 0,-1.4728 0.9198,-2.1957 2.469,-3.1583 1.449,-0.9006 2.328,-1.4729 2.328,-2.6266 0,-1.0647 -0.8818,-1.8987 -2.0987,-1.8987 -1.3578,0 -2.3636,0.9227 -2.4869,2.4135 h -0.2466 z m 19.1795,2.1144 -2.2926,6.5129 c -0.1061,0.3016 -0.1942,0.5499 -0.1942,0.7806 0,0.4969 0.2996,0.7455 0.917,0.7455 v 0.2483 c -0.5995,-0.0178 -1.2169,-0.0178 -1.8164,-0.0178 -0.6174,0 -1.217,0 -1.8341,0.0178 v -0.2483 c 0.8289,-0.0711 1.3051,-0.6568 1.6577,-1.8278 l -2.275,-6.2112 -2.293,6.5129 c -0.106,0.3016 -0.1939,0.5499 -0.1939,0.7806 0,0.4969 0.2999,0.7455 0.917,0.7455 v 0.2483 c -0.5995,-0.0178 -1.2169,-0.0178 -1.8164,-0.0178 -0.6174,0 -1.2172,0 -1.8371,0.0178 v -0.2483 c 0.9374,-0.1066 1.2523,-0.6755 1.6429,-1.7572 l 3.0337,-8.3962 h 0.2293 l 2.8394,7.74 2.7689,-7.74 h 0.2293 l 3.1218,8.5028 c 0.3654,0.9955 0.7937,1.491 1.6402,1.6506 v 0.2483 c -0.4232,-0.0178 -0.8995,-0.0178 -1.3933,-0.0178 -0.5116,0 -1.0406,0 -1.6225,0.0178 v -0.2483 h 0.0706 c 0.6701,0 1.023,-0.2843 1.023,-0.7988 0,-0.2129 -0.0369,-0.4787 -0.1415,-0.7631 z m 7.6805,2.9815 1.5171,4.4895 1.4811,-4.4895 z m -3.0186,-4.8833 c 0.4436,0.021 0.9025,0.0386 1.3609,0.0386 0.4586,0 0.9524,-0.0176 1.4462,-0.0386 v 0.2514 c -0.6349,0 -0.9524,0.2841 -0.9524,0.8164 0,0.1953 0.0482,0.4275 0.1412,0.7098 l 0.8467,2.5733 h 3.3508 l 0.8643,-2.6087 c 0.0935,-0.2821 0.1763,-0.5148 0.1763,-0.7455 0,-0.4791 -0.2999,-0.7098 -0.917,-0.7453 v -0.2514 c 0.6171,0.021 1.199,0.0386 1.7989,0.0386 0.5816,0 1.1639,-0.0176 1.7461,-0.0386 v 0.2514 h -0.106 c -0.6347,0 -1.0401,0.4618 -1.3581,1.4196 l -2.91,8.7665 h -1.0231 l -2.8922,-8.5 c -0.3866,-1.1361 -0.7937,-1.6682 -1.5726,-1.6861 z m 12.0044,0 c 1.323,0.021 2.628,0.0386 3.8979,0.0386 1.2697,0 2.522,-0.0176 3.7389,-0.0386 l 0.529,2.1504 h -0.2466 c -0.2824,-1.1537 -1.0939,-1.7037 -2.4693,-1.7037 h -1.3405 c -1.1636,0 -1.3932,0.3192 -1.3932,1.4375 v 6.1934 c 0,1.2952 0.388,1.8632 1.3756,1.8632 h 0.1409 v 0.2483 c -0.7583,-0.0178 -1.4811,-0.0178 -2.1866,-0.0178 -0.7056,0 -1.3933,0 -2.0461,0.0178 v -0.2483 c 0.9703,-0.0178 1.323,-0.5859 1.323,-1.8632 v -5.9629 c 0,-1.2773 -0.3527,-1.8454 -1.323,-1.8633 z"
           style="fill:#373435;fill-opacity:1;fill-rule:evenodd;stroke:none"
           id="path436" />
        <g
           id="g438"
           transform="matrix(0,-0.58127,0.57912,0,0,0)">
          <path
             d="M -356.7946,634.3676 V 901.2291"
             style="fill:none;stroke:#373435;stroke-width:1.5656;stroke-linecap:butt;stroke-linejoin:miter;stroke-miterlimit:2.61313;stroke-dasharray:none;stroke-opacity:1"
             id="path440" />
        </g>
      </g>
    </g>
  </g>
</svg>
