<?xml version="1.0" encoding="iso-8859-1"?>
<!-- Generator: Adobe Illustrator 24.3.0, SVG Export Plug-In . SVG Version: 6.00 Build 0)  -->
<svg version="1.1" id="Layer_1" xmlns="http://www.w3.org/2000/svg" xmlns:xlink="http://www.w3.org/1999/xlink" x="0px" y="0px"
	 viewBox="0 0 500 500" style="enable-background:new 0 0 500 500;" xml:space="preserve">
<g id="watermark_1_">
	<g>
		<g id="watermark" style="opacity:0.61;">
			<g>
				<g>
					<g>
						<g>
							<polygon style="fill:#FFFFFF;" points="213.765,461.172 208.204,474.017 205.268,474.017 199.726,461.172 202.938,461.172 
								206.846,470.347 210.81,461.172 							"/>
						</g>
						<g>
							<path style="fill:#FFFFFF;" d="M223.507,469.741h-7.469c0.275,1.23,1.321,1.982,2.826,1.982c1.046,0,1.798-0.312,2.477-0.954
								l1.523,1.651c-0.917,1.046-2.294,1.597-4.074,1.597c-3.413,0-5.634-2.147-5.634-5.083c0-2.954,2.257-5.083,5.267-5.083
								c2.899,0,5.138,1.945,5.138,5.12C223.562,469.191,223.526,469.503,223.507,469.741 M216.002,468.071h4.863
								c-0.202-1.248-1.138-2.055-2.422-2.055C217.139,466.016,216.204,466.805,216.002,468.071"/>
						</g>
						<g>
							<path style="fill:#FFFFFF;" d="M224.735,468.934c0-2.973,2.294-5.083,5.505-5.083c2.074,0,3.707,0.899,4.423,2.514
								l-2.22,1.193c-0.532-0.936-1.321-1.358-2.221-1.358c-1.45,0-2.587,1.009-2.587,2.734c0,1.725,1.138,2.734,2.587,2.734
								c0.899,0,1.688-0.404,2.221-1.358l2.22,1.211c-0.716,1.578-2.349,2.495-4.423,2.495
								C227.029,474.017,224.735,471.907,224.735,468.934"/>
						</g>
						<g>
							<path style="fill:#FFFFFF;" d="M242.828,473.393c-0.587,0.422-1.45,0.624-2.331,0.624c-2.33,0-3.688-1.193-3.688-3.542
								v-4.055h-1.523v-2.202h1.523v-2.404h2.863v2.404h2.459v2.202h-2.459v4.019c0,0.844,0.458,1.303,1.229,1.303
								c0.422,0,0.844-0.128,1.156-0.367L242.828,473.393z"/>
						</g>
					</g>
					<g>
						<path style="fill:#FFFFFF;" d="M262.474,463.997v2.643c-0.238-0.018-0.422-0.037-0.642-0.037
							c-1.578,0-2.624,0.862-2.624,2.753v4.661h-2.863v-9.873h2.734v1.303C259.776,464.493,260.951,463.997,262.474,463.997"/>
					</g>
					<g>
						<path style="fill:#FFFFFF;" d="M263.299,472.53l1.009-2.239c1.083,0.789,2.697,1.339,4.239,1.339
							c1.762,0,2.477-0.587,2.477-1.376c0-2.404-7.469-0.752-7.469-5.524c0-2.184,1.762-4,5.413-4c1.615,0,3.267,0.385,4.459,1.138
							l-0.918,2.257c-1.193-0.679-2.422-1.009-3.56-1.009c-1.761,0-2.44,0.66-2.44,1.468c0,2.367,7.468,0.734,7.468,5.45
							c0,2.147-1.78,3.982-5.45,3.982C266.492,474.017,264.437,473.411,263.299,472.53"/>
					</g>
					<g>
						<path style="fill:#FFFFFF;" d="M285.428,469.741h-7.469c0.275,1.23,1.321,1.982,2.826,1.982c1.046,0,1.798-0.312,2.477-0.954
							l1.523,1.651c-0.918,1.046-2.294,1.597-4.074,1.597c-3.413,0-5.634-2.147-5.634-5.083c0-2.954,2.257-5.083,5.267-5.083
							c2.9,0,5.138,1.945,5.138,5.12C285.484,469.191,285.447,469.503,285.428,469.741 M277.923,468.071h4.863
							c-0.202-1.248-1.138-2.055-2.422-2.055C279.061,466.016,278.125,466.805,277.923,468.071"/>
					</g>
					<g>
						<path style="fill:#FFFFFF;" d="M297.007,469.741h-7.469c0.275,1.23,1.321,1.982,2.826,1.982c1.046,0,1.798-0.312,2.477-0.954
							l1.523,1.651c-0.918,1.046-2.294,1.597-4.074,1.597c-3.413,0-5.634-2.147-5.634-5.083c0-2.954,2.257-5.083,5.267-5.083
							c2.899,0,5.138,1.945,5.138,5.12C297.062,469.191,297.025,469.503,297.007,469.741 M289.501,468.071h4.863
							c-0.202-1.248-1.138-2.055-2.422-2.055C290.639,466.016,289.703,466.805,289.501,468.071"/>
					</g>
					<g>
						<polygon style="fill:#FFFFFF;" points="303.208,470.145 301.831,471.503 301.831,474.017 298.969,474.017 298.969,460.401 
							301.831,460.401 301.831,468.108 306.016,464.144 309.429,464.144 305.318,468.328 309.796,474.017 306.327,474.017 						"/>
					</g>
					<g>
						<path style="fill:#FFFFFF;" d="M256.601,475.359L256.601,475.359l-2.86-2.86c-0.435,0.508-0.953,0.943-1.534,1.284
							c-0.092,0.069-0.186,0.136-0.283,0.199l3.027,3.027c0.456,0.456,1.195,0.456,1.65,0
							C257.057,476.554,257.057,475.815,256.601,475.359"/>
					</g>
					<g>
						<path style="fill:#FFFFFF;" d="M249.984,463.244c0.221-0.173,0.495-0.281,0.797-0.281c0.042,0,0.083,0.002,0.124,0.006
							c-0.214-0.156-0.478-0.249-0.764-0.249c-0.395,0-0.744,0.18-0.981,0.458c-0.051,0-0.1,0.006-0.151,0.008
							c0.039-0.077,0.064-0.162,0.064-0.255c0-0.234-0.143-0.434-0.346-0.519c0.087,0.126,0.138,0.279,0.138,0.445
							c0,0.122-0.031,0.237-0.081,0.341c-2.811,0.201-5.03,2.539-5.03,5.4c0,2.993,2.426,5.42,5.42,5.42
							c2.993,0,5.42-2.426,5.42-5.42C254.595,465.879,252.593,463.635,249.984,463.244 M247.983,464.656
							c0.435,0,0.844,0.112,1.199,0.309c0.374-0.245,0.82-0.387,1.299-0.387c0.711,0,1.348,0.312,1.784,0.806
							c-0.435-0.379-1.004-0.61-1.627-0.61c-0.449,0-0.87,0.12-1.234,0.329c-0.079,0.046-0.156,0.096-0.229,0.15
							c-0.065-0.048-0.133-0.093-0.204-0.134c-0.369-0.219-0.8-0.344-1.26-0.344c-0.3,0-0.588,0.054-0.854,0.152
							C247.196,464.754,247.578,464.656,247.983,464.656 M251.772,469.098c0.115,0.305,0.181,0.634,0.181,0.979
							c0,1.534-1.244,2.777-2.778,2.777c-1.534,0-2.777-1.243-2.777-2.777c0-0.345,0.066-0.674,0.181-0.979
							c-0.62-0.382-1.035-1.064-1.035-1.846c0-1.197,0.971-2.168,2.168-2.168c0.565,0,1.078,0.218,1.463,0.572
							c0.386-0.354,0.899-0.572,1.464-0.572c1.197,0,2.168,0.971,2.168,2.168C252.807,468.034,252.392,468.716,251.772,469.098"/>
					</g>
					<g>
						<path style="fill:#FFFFFF;" d="M251.666,467.061c0,0.497-0.404,0.901-0.901,0.901c-0.497,0-0.901-0.404-0.901-0.901
							s0.404-0.901,0.901-0.901c0.101,0,0.197,0.017,0.287,0.047c-0.03,0.062-0.045,0.132-0.045,0.204
							c0,0.273,0.221,0.494,0.494,0.494c0.05,0,0.099-0.008,0.146-0.022C251.66,466.941,251.666,467,251.666,467.061"/>
					</g>
					<g>
						<path style="fill:#FFFFFF;" d="M248.255,467.061c0,0.376-0.305,0.681-0.681,0.681c-0.376,0-0.681-0.305-0.681-0.681
							s0.305-0.681,0.681-0.681c0.076,0,0.149,0.013,0.217,0.035c-0.023,0.047-0.034,0.1-0.034,0.155
							c0,0.206,0.167,0.374,0.374,0.374c0.038,0,0.075-0.006,0.11-0.017C248.25,466.97,248.255,467.015,248.255,467.061"/>
					</g>
					<g>
						<g>
							<g>
								<rect x="242.908" y="467.83" style="fill:#FFFFFF;" width="0.616" height="0.616"/>
							</g>
							<g>
								<rect x="254.827" y="467.83" style="fill:#FFFFFF;" width="0.616" height="0.616"/>
							</g>
							<g>
								<path style="fill:#FFFFFF;" d="M255.205,468.082h-0.14c0-3.248-2.642-5.89-5.89-5.89c-3.248,0-5.89,2.642-5.89,5.89h-0.14
									c0-1.611,0.627-3.125,1.766-4.264c1.139-1.139,2.653-1.766,4.264-1.766c1.611,0,3.125,0.627,4.264,1.766
									C254.578,464.957,255.205,466.471,255.205,468.082"/>
							</g>
						</g>
						<g>
							<rect x="248.868" y="461.814" style="fill:#FFFFFF;" width="0.616" height="0.616"/>
						</g>
						<g>
							<rect x="244.95" y="462.052" style="fill:#FFFFFF;" width="8.45" height="0.14"/>
						</g>
						<g>
							<path style="fill:#FFFFFF;" d="M245.174,462.15c0,0.108-0.088,0.196-0.196,0.196c-0.108,0-0.196-0.088-0.196-0.196
								c0-0.108,0.088-0.196,0.196-0.196C245.086,461.954,245.174,462.042,245.174,462.15"/>
						</g>
						<g>
							<path style="fill:#FFFFFF;" d="M253.596,462.15c0,0.108-0.088,0.196-0.196,0.196c-0.108,0-0.196-0.088-0.196-0.196
								c0-0.108,0.088-0.196,0.196-0.196C253.509,461.954,253.596,462.042,253.596,462.15"/>
						</g>
					</g>
				</g>
				<g>
					<path style="fill:#FFFFFF;" d="M314.356,473.409c0,1.559-2.364,1.559-2.364,0C311.993,471.851,314.356,471.851,314.356,473.409
						z"/>
				</g>
				<g>
					<g>
						<g>
							<path style="fill:#FFFFFF;" d="M161.739,466.549l1.772,6.088l1.855-6.088h2.215l-2.823,8.14h-2.33l-0.837-2.396l-0.722-2.708
								l-0.722,2.708l-0.837,2.396h-2.33l-2.839-8.14h2.231l1.855,6.088l1.756-6.088H161.739z"/>
						</g>
						<g>
							<path style="fill:#FFFFFF;" d="M176.713,466.549l1.772,6.088l1.855-6.088h2.215l-2.823,8.14h-2.33l-0.837-2.396l-0.722-2.708
								l-0.722,2.708l-0.837,2.396h-2.33l-2.839-8.14h2.231l1.855,6.088l1.756-6.088H176.713z"/>
						</g>
						<g>
							<path style="fill:#FFFFFF;" d="M191.687,466.549l1.772,6.088l1.855-6.088h2.215l-2.823,8.14h-2.33l-0.837-2.396l-0.722-2.708
								l-0.722,2.708l-0.837,2.396h-2.33l-2.839-8.14h2.231l1.855,6.088l1.756-6.088H191.687z"/>
						</g>
					</g>
					<g>
						<path style="fill:#FFFFFF;" d="M200.908,473.52c0,1.559-2.364,1.559-2.364,0C198.545,471.962,200.908,471.962,200.908,473.52z
							"/>
					</g>
					<g>
						<path style="fill:#FFFFFF;" d="M322.71,473.409c-0.935,0.919-1.919,1.28-3.117,1.28c-2.346,0-4.3-1.411-4.3-4.282
							s1.953-4.284,4.3-4.284c1.149,0,2.035,0.329,2.921,1.199l-1.264,1.329c-0.476-0.428-1.066-0.64-1.623-0.64
							c-1.346,0-2.33,0.985-2.33,2.396c0,1.542,1.05,2.362,2.297,2.362c0.64,0,1.28-0.18,1.772-0.672L322.71,473.409z"/>
					</g>
					<g>
						<path style="fill:#FFFFFF;" d="M331.805,470.472c0,2.33-1.591,4.217-4.217,4.217c-2.626,0-4.201-1.887-4.201-4.217
							c0-2.314,1.609-4.217,4.185-4.217C330.149,466.255,331.805,468.158,331.805,470.472z M325.389,470.472
							c0,1.231,0.739,2.38,2.199,2.38c1.46,0,2.199-1.149,2.199-2.38c0-1.215-0.854-2.396-2.199-2.396
							C326.144,468.077,325.389,469.258,325.389,470.472z"/>
					</g>
					<g>
						<path style="fill:#FFFFFF;" d="M338.572,474.689v-4.332c0-1.068-0.559-2.035-1.658-2.035c-1.082,0-1.722,0.967-1.722,2.035
							v4.332h-2.003v-8.107h1.855l0.148,0.985c0.426-0.82,1.362-1.116,2.133-1.116c0.969,0,1.937,0.394,2.396,1.51
							c0.723-1.149,1.658-1.478,2.708-1.478c2.297,0,3.43,1.412,3.43,3.84v4.365h-2.003v-4.365c0-1.066-0.442-1.97-1.526-1.97
							c-1.082,0-1.756,0.935-1.756,2.003v4.332H338.572z"/>
					</g>
				</g>
			</g>
		</g>
		<g style="opacity:0.61;">
			<g>
				<g>
					<path style="fill:#FFFFFF;" d="M345.988,431.299c-0.006-1.224-0.959-2.121-2.189-2.14c-0.924-0.014-0.832,0.12-0.834-0.867
						c-0.003-1.097-0.007-2.194,0.003-3.292c0.003-0.379-0.112-0.691-0.362-0.976c-2.342-2.668-4.678-5.342-7.019-8.011
						c-0.12-0.137-0.275-0.244-0.414-0.366c-6.214,0-12.427,0-18.641,0c-0.794,0.293-1.14,0.868-1.138,1.709
						c0.01,3.748,0.004,7.496,0.004,11.243c0,0.556-0.003,0.589-0.55,0.551c-1.497-0.102-2.516,0.986-2.497,2.492
						c0.044,3.476,0.013,6.953,0.014,10.429c0.001,1.58,0.867,2.443,2.45,2.449c0.582,0.002,0.582,0.002,0.582,0.6
						c0,2.219-0.001,4.438,0.001,6.657c0.001,1.192,0.58,1.771,1.768,1.771c8.013,0.001,16.027,0.001,24.04,0
						c1.168,0,1.755-0.583,1.757-1.745c0.002-2.256,0-4.512,0.001-6.768c0-0.512,0.002-0.511,0.52-0.515
						c0.271-0.002,0.541,0.008,0.809-0.058c0.996-0.246,1.69-1.044,1.694-2.069C346.003,438.696,346.005,434.997,345.988,431.299z
						 M317.537,417.162c5.337,0,10.674,0,16.01,0c0.548,0,0.554,0.007,0.554,0.561c0.001,2.243-0.001,4.486,0.001,6.73
						c0.001,0.811,0.249,1.059,1.06,1.059c1.91,0.001,3.821,0,5.731,0.001c0.458,0,0.479,0.021,0.481,0.483
						c0.003,0.887,0.002,1.775,0,2.662c-0.001,0.477-0.024,0.498-0.504,0.499c-3.895,0.001-7.79,0-11.684,0
						c-3.882,0-7.765,0-11.647,0c-0.55,0-0.552-0.001-0.552-0.561c-0.001-3.624-0.001-7.247,0-10.871
						C316.987,417.166,316.991,417.162,317.537,417.162z M340.822,451.579c-3.883,0.001-7.766,0-11.65,0c-3.871,0-7.742,0-11.613,0
						c-0.572,0-0.574-0.002-0.574-0.579c-0.001-1.997-0.001-3.994,0.001-5.991c0-0.464,0.023-0.486,0.478-0.487
						c7.803-0.001,15.607-0.001,23.41,0c0.478,0,0.499,0.02,0.499,0.503c0.002,1.997,0.001,3.994,0,5.991
						C341.375,451.574,341.37,451.579,340.822,451.579z"/>
				</g>
				<g>
					<g>
						<rect x="327.418" y="417.053" style="fill:#FFFFFF;" width="1.757" height="1.054"/>
					</g>
					<g>
						<rect x="325.662" y="418.107" style="fill:#FFFFFF;" width="1.757" height="1.054"/>
					</g>
					<g>
						<rect x="327.418" y="419.161" style="fill:#FFFFFF;" width="1.757" height="1.054"/>
					</g>
					<g>
						<rect x="325.662" y="420.215" style="fill:#FFFFFF;" width="1.757" height="1.054"/>
					</g>
					<g>
						<rect x="327.418" y="421.269" style="fill:#FFFFFF;" width="1.757" height="1.054"/>
					</g>
					<g>
						<rect x="325.662" y="422.323" style="fill:#FFFFFF;" width="1.757" height="1.054"/>
					</g>
					<g>
						<rect x="327.418" y="423.378" style="fill:#FFFFFF;" width="1.757" height="1.054"/>
					</g>
					<g>
						<rect x="325.662" y="424.432" style="fill:#FFFFFF;" width="1.757" height="1.054"/>
					</g>
					<g>
						<rect x="327.418" y="425.486" style="fill:#FFFFFF;" width="1.757" height="1.054"/>
					</g>
					<g>
						<rect x="325.662" y="426.54" style="fill:#FFFFFF;" width="1.757" height="1.054"/>
					</g>
					<g>
						<rect x="327.418" y="427.594" style="fill:#FFFFFF;" width="1.757" height="1.054"/>
					</g>
					<g>
						<rect x="325.662" y="428.648" style="fill:#FFFFFF;" width="1.757" height="1.054"/>
					</g>
				</g>
			</g>
			<g>
				<path style="fill:#FFFFFF;" d="M187.637,431.299c-0.006-1.224-0.959-2.121-2.189-2.14c-0.924-0.014-0.832,0.12-0.834-0.867
					c-0.003-1.097-0.007-2.194,0.003-3.292c0.003-0.379-0.112-0.691-0.362-0.976c-2.342-2.668-4.678-5.342-7.019-8.011
					c-0.12-0.137-0.275-0.244-0.414-0.366c-6.214,0-12.427,0-18.641,0c-0.794,0.293-1.14,0.868-1.138,1.709
					c0.01,3.748,0.004,7.496,0.004,11.243c0,0.556-0.003,0.589-0.55,0.551c-1.497-0.102-2.516,0.986-2.497,2.492
					c0.044,3.476,0.013,6.953,0.014,10.429c0.001,1.58,0.867,2.443,2.45,2.449c0.582,0.002,0.582,0.002,0.582,0.6
					c0,2.219-0.001,4.438,0.001,6.657c0.001,1.192,0.58,1.771,1.768,1.771c8.013,0.001,16.027,0.001,24.04,0
					c1.168,0,1.755-0.583,1.757-1.745c0.002-2.256,0-4.512,0.001-6.768c0-0.512,0.002-0.511,0.52-0.515
					c0.271-0.002,0.541,0.008,0.809-0.058c0.996-0.246,1.69-1.044,1.694-2.069C187.652,438.696,187.655,434.997,187.637,431.299z
					 M159.187,417.162c5.337,0,10.674,0,16.01,0c0.548,0,0.554,0.007,0.554,0.561c0.001,2.243-0.001,4.486,0.001,6.73
					c0.001,0.811,0.249,1.059,1.06,1.059c1.91,0.001,3.821,0,5.731,0.001c0.458,0,0.479,0.021,0.481,0.483
					c0.003,0.887,0.002,1.775,0,2.662c-0.001,0.477-0.024,0.498-0.504,0.499c-3.895,0.001-7.79,0-11.684,0
					c-3.882,0-7.765,0-11.647,0c-0.55,0-0.552-0.001-0.552-0.561c-0.001-3.624-0.001-7.247,0-10.871
					C158.636,417.166,158.64,417.162,159.187,417.162z M182.472,451.579c-3.883,0.001-7.766,0-11.65,0c-3.871,0-7.742,0-11.613,0
					c-0.572,0-0.574-0.002-0.574-0.579c-0.001-1.997-0.001-3.994,0.001-5.991c0-0.464,0.023-0.486,0.478-0.487
					c7.803-0.001,15.607-0.001,23.41,0c0.478,0,0.499,0.02,0.499,0.503c0.002,1.997,0.001,3.994,0,5.991
					C183.024,451.574,183.019,451.579,182.472,451.579z"/>
			</g>
			<g>
				<path style="fill:#FFFFFF;" d="M159.779,440.669v-7.897h2.779c0.375,0,0.726,0.061,1.053,0.182
					c0.327,0.121,0.612,0.292,0.855,0.513c0.242,0.221,0.434,0.483,0.573,0.789c0.14,0.305,0.21,0.642,0.21,1.009
					c0,0.375-0.07,0.715-0.21,1.02c-0.14,0.305-0.331,0.568-0.573,0.789c-0.243,0.221-0.528,0.392-0.855,0.513
					c-0.327,0.121-0.678,0.182-1.053,0.182h-1.29v2.901H159.779z M162.58,436.356c0.39,0,0.684-0.111,0.882-0.331
					c0.199-0.22,0.298-0.474,0.298-0.761c0-0.14-0.024-0.276-0.072-0.408c-0.048-0.132-0.121-0.248-0.221-0.347
					c-0.099-0.099-0.223-0.178-0.37-0.237c-0.147-0.059-0.32-0.089-0.518-0.089h-1.312v2.173H162.58z"/>
				<path style="fill:#FFFFFF;" d="M166.308,432.771h1.731l3.177,5.294h0.088l-0.088-1.522v-3.772h1.478v7.897h-1.566l-3.353-5.592
					h-0.088l0.088,1.522v4.07h-1.467V432.771z"/>
				<path style="fill:#FFFFFF;" d="M177.922,436.334h3.872c0.022,0.089,0.04,0.195,0.055,0.32c0.014,0.125,0.022,0.25,0.022,0.375
					c0,0.507-0.077,0.985-0.231,1.434c-0.154,0.449-0.397,0.849-0.728,1.202c-0.353,0.375-0.776,0.666-1.268,0.871
					c-0.493,0.206-1.055,0.309-1.688,0.309c-0.574,0-1.114-0.103-1.622-0.309c-0.507-0.206-0.948-0.492-1.323-0.86
					c-0.375-0.367-0.673-0.803-0.894-1.307c-0.221-0.504-0.331-1.053-0.331-1.649c0-0.595,0.11-1.145,0.331-1.649
					c0.221-0.504,0.518-0.939,0.894-1.307c0.375-0.367,0.816-0.654,1.323-0.86c0.507-0.206,1.048-0.309,1.622-0.309
					c0.64,0,1.211,0.11,1.715,0.331c0.504,0.221,0.935,0.526,1.296,0.915l-1.025,1.004c-0.258-0.272-0.544-0.48-0.861-0.623
					c-0.316-0.143-0.695-0.215-1.136-0.215c-0.361,0-0.703,0.065-1.026,0.193c-0.324,0.129-0.607,0.311-0.85,0.546
					c-0.242,0.235-0.436,0.52-0.579,0.855c-0.143,0.335-0.215,0.708-0.215,1.119c0,0.412,0.072,0.785,0.215,1.12
					c0.143,0.335,0.338,0.62,0.584,0.855c0.246,0.235,0.531,0.418,0.855,0.546c0.323,0.129,0.669,0.193,1.037,0.193
					c0.419,0,0.773-0.061,1.064-0.182c0.29-0.121,0.538-0.278,0.744-0.469c0.148-0.132,0.275-0.3,0.381-0.502
					c0.106-0.202,0.189-0.428,0.248-0.678h-2.482V436.334z"/>
			</g>
			<g>
				<path style="fill:#FFFFFF;" d="M224.019,431.299c-0.006-1.224-0.959-2.121-2.189-2.14c-0.924-0.014-0.832,0.12-0.834-0.867
					c-0.003-1.097-0.007-2.194,0.003-3.292c0.003-0.379-0.112-0.691-0.362-0.976c-2.342-2.668-4.678-5.342-7.019-8.011
					c-0.12-0.137-0.275-0.244-0.414-0.366c-6.214,0-12.427,0-18.641,0c-0.794,0.293-1.14,0.868-1.138,1.709
					c0.01,3.748,0.004,7.496,0.004,11.243c0,0.556-0.003,0.589-0.55,0.551c-1.497-0.102-2.516,0.986-2.497,2.492
					c0.044,3.476,0.013,6.953,0.014,10.429c0.001,1.58,0.867,2.443,2.45,2.449c0.582,0.002,0.582,0.002,0.582,0.6
					c0,2.219-0.001,4.438,0.001,6.657c0.001,1.192,0.58,1.771,1.768,1.771c8.013,0.001,16.027,0.001,24.04,0
					c1.168,0,1.755-0.583,1.757-1.745c0.002-2.256,0-4.512,0.001-6.768c0-0.512,0.002-0.511,0.52-0.515
					c0.271-0.002,0.541,0.008,0.809-0.058c0.997-0.246,1.69-1.044,1.694-2.069C224.034,438.696,224.036,434.997,224.019,431.299z
					 M195.568,417.162c5.337,0,10.674,0,16.01,0c0.548,0,0.554,0.007,0.554,0.561c0.001,2.243-0.001,4.486,0.001,6.73
					c0.001,0.811,0.249,1.059,1.06,1.059c1.91,0.001,3.821,0,5.731,0.001c0.458,0,0.479,0.021,0.481,0.483
					c0.003,0.887,0.002,1.775,0,2.662c-0.001,0.477-0.024,0.498-0.504,0.499c-3.895,0.001-7.79,0-11.684,0
					c-3.882,0-7.765,0-11.647,0c-0.55,0-0.552-0.001-0.552-0.561c-0.001-3.624-0.001-7.247,0-10.871
					C195.018,417.166,195.022,417.162,195.568,417.162z M218.854,451.579c-3.883,0.001-7.766,0-11.65,0c-3.871,0-7.742,0-11.613,0
					c-0.572,0-0.574-0.002-0.574-0.579c-0.001-1.997-0.001-3.994,0.001-5.991c0-0.464,0.023-0.486,0.478-0.487
					c7.803-0.001,15.607-0.001,23.41,0c0.478,0,0.499,0.02,0.499,0.503c0.002,1.997,0.001,3.994,0,5.991
					C219.406,451.574,219.401,451.579,218.854,451.579z"/>
			</g>
			<g>
				<path style="fill:#FFFFFF;" d="M205.111,432.771h1.699l2.967,7.897h-1.644l-0.651-1.886h-3.044l-0.651,1.886h-1.643
					L205.111,432.771z M206.997,437.415l-0.706-1.974l-0.287-0.96h-0.088l-0.287,0.96l-0.706,1.974H206.997z"/>
				<path style="fill:#FFFFFF;" d="M211.331,434.536c-0.125,0-0.245-0.024-0.359-0.072c-0.114-0.048-0.213-0.114-0.298-0.199
					c-0.084-0.084-0.151-0.182-0.198-0.292c-0.048-0.11-0.072-0.232-0.072-0.364s0.024-0.254,0.072-0.364
					c0.048-0.11,0.114-0.208,0.198-0.292c0.084-0.084,0.184-0.151,0.298-0.198c0.114-0.048,0.233-0.072,0.359-0.072
					c0.257,0,0.478,0.09,0.662,0.27c0.184,0.181,0.276,0.399,0.276,0.656s-0.092,0.476-0.276,0.656
					C211.809,434.446,211.589,434.536,211.331,434.536z M210.615,440.669v-5.404h1.445v5.404H210.615z"/>
			</g>
			<g>
				<path style="fill:#FFFFFF;" d="M261.044,431.299c-0.006-1.224-0.959-2.121-2.189-2.14c-0.924-0.014-0.832,0.12-0.834-0.867
					c-0.003-1.097-0.007-2.194,0.003-3.292c0.003-0.379-0.112-0.691-0.362-0.976c-2.342-2.668-4.678-5.342-7.019-8.011
					c-0.12-0.137-0.275-0.244-0.414-0.366c-6.214,0-12.427,0-18.641,0c-0.794,0.293-1.14,0.868-1.138,1.709
					c0.01,3.748,0.004,7.496,0.004,11.243c0,0.556-0.003,0.589-0.55,0.551c-1.497-0.102-2.516,0.986-2.497,2.492
					c0.044,3.476,0.013,6.953,0.014,10.429c0.001,1.58,0.867,2.443,2.45,2.449c0.582,0.002,0.582,0.002,0.582,0.6
					c0,2.219-0.001,4.438,0.001,6.657c0.001,1.192,0.58,1.771,1.768,1.771c8.013,0.001,16.027,0.001,24.04,0
					c1.168,0,1.755-0.583,1.757-1.745c0.002-2.256,0-4.512,0.001-6.768c0-0.512,0.002-0.511,0.52-0.515
					c0.271-0.002,0.541,0.008,0.809-0.058c0.996-0.246,1.69-1.044,1.694-2.069C261.059,438.696,261.061,434.997,261.044,431.299z
					 M232.593,417.162c5.337,0,10.674,0,16.01,0c0.548,0,0.554,0.007,0.554,0.561c0.001,2.243-0.001,4.486,0.001,6.73
					c0.001,0.811,0.249,1.059,1.06,1.059c1.91,0.001,3.821,0,5.731,0.001c0.458,0,0.479,0.021,0.481,0.483
					c0.003,0.887,0.002,1.775,0,2.662c-0.001,0.477-0.024,0.498-0.504,0.499c-3.895,0.001-7.79,0-11.684,0
					c-3.882,0-7.765,0-11.647,0c-0.55,0-0.552-0.001-0.552-0.561c-0.001-3.624-0.001-7.247,0-10.871
					C232.042,417.166,232.047,417.162,232.593,417.162z M255.878,451.579c-3.883,0.001-7.766,0-11.65,0c-3.871,0-7.742,0-11.613,0
					c-0.572,0-0.574-0.002-0.574-0.579c-0.001-1.997-0.001-3.994,0.001-5.991c0-0.464,0.023-0.486,0.478-0.487
					c7.803-0.001,15.607-0.001,23.41,0c0.478,0,0.499,0.02,0.499,0.503c0.002,1.997,0.001,3.994,0,5.991
					C256.431,451.574,256.426,451.579,255.878,451.579z"/>
			</g>
			<g>
				<path style="fill:#FFFFFF;" d="M236.361,440.845c-0.338,0-0.662-0.048-0.971-0.143c-0.309-0.095-0.592-0.239-0.849-0.43
					c-0.257-0.191-0.481-0.425-0.673-0.7c-0.191-0.276-0.342-0.597-0.452-0.965l1.401-0.551c0.103,0.397,0.283,0.726,0.54,0.987
					c0.257,0.261,0.596,0.392,1.015,0.392c0.154,0,0.303-0.02,0.447-0.061c0.143-0.04,0.272-0.099,0.386-0.176
					s0.204-0.175,0.27-0.292c0.066-0.118,0.099-0.254,0.099-0.408c0-0.147-0.026-0.279-0.077-0.397
					c-0.051-0.117-0.138-0.227-0.259-0.331c-0.121-0.103-0.28-0.202-0.475-0.298c-0.195-0.095-0.435-0.195-0.722-0.298l-0.485-0.176
					c-0.213-0.073-0.429-0.173-0.645-0.298c-0.217-0.125-0.413-0.276-0.59-0.452c-0.177-0.176-0.322-0.384-0.436-0.623
					c-0.114-0.239-0.171-0.509-0.171-0.81c0-0.309,0.06-0.597,0.182-0.866c0.121-0.268,0.294-0.503,0.518-0.706
					c0.224-0.202,0.492-0.36,0.805-0.474s0.66-0.171,1.042-0.171c0.397,0,0.74,0.053,1.031,0.16
					c0.291,0.107,0.537,0.243,0.739,0.408c0.202,0.165,0.366,0.348,0.491,0.546c0.125,0.199,0.217,0.386,0.276,0.563l-1.312,0.551
					c-0.074-0.221-0.208-0.419-0.402-0.596c-0.195-0.176-0.462-0.265-0.8-0.265c-0.324,0-0.592,0.075-0.805,0.226
					c-0.213,0.151-0.32,0.348-0.32,0.59c0,0.235,0.103,0.436,0.309,0.601c0.206,0.165,0.533,0.325,0.982,0.48l0.497,0.165
					c0.316,0.111,0.605,0.237,0.866,0.381c0.261,0.143,0.485,0.314,0.673,0.513c0.187,0.199,0.331,0.425,0.43,0.678
					c0.1,0.254,0.149,0.546,0.149,0.877c0,0.412-0.083,0.767-0.248,1.064c-0.165,0.298-0.377,0.542-0.634,0.734
					c-0.258,0.191-0.548,0.335-0.872,0.43C236.986,440.797,236.67,440.845,236.361,440.845z"/>
				<path style="fill:#FFFFFF;" d="M239.516,432.771h1.61l1.633,4.754l0.287,1.015h0.088l0.309-1.015l1.699-4.754h1.61l-2.879,7.897
					h-1.566L239.516,432.771z"/>
				<path style="fill:#FFFFFF;" d="M251.097,436.334h3.871c0.022,0.089,0.04,0.195,0.055,0.32c0.015,0.125,0.023,0.25,0.023,0.375
					c0,0.507-0.078,0.985-0.232,1.434c-0.154,0.449-0.397,0.849-0.728,1.202c-0.353,0.375-0.775,0.666-1.268,0.871
					c-0.493,0.206-1.055,0.309-1.688,0.309c-0.574,0-1.114-0.103-1.621-0.309c-0.507-0.206-0.949-0.492-1.324-0.86
					c-0.375-0.367-0.673-0.803-0.894-1.307c-0.22-0.504-0.331-1.053-0.331-1.649c0-0.595,0.11-1.145,0.331-1.649
					c0.221-0.504,0.518-0.939,0.894-1.307c0.375-0.367,0.816-0.654,1.324-0.86c0.507-0.206,1.047-0.309,1.621-0.309
					c0.64,0,1.211,0.11,1.715,0.331c0.504,0.221,0.936,0.526,1.296,0.915l-1.026,1.004c-0.257-0.272-0.544-0.48-0.861-0.623
					c-0.316-0.143-0.694-0.215-1.136-0.215c-0.36,0-0.702,0.065-1.026,0.193c-0.323,0.129-0.607,0.311-0.849,0.546
					c-0.243,0.235-0.436,0.52-0.579,0.855c-0.143,0.335-0.215,0.708-0.215,1.119c0,0.412,0.072,0.785,0.215,1.12
					c0.143,0.335,0.338,0.62,0.585,0.855c0.246,0.235,0.531,0.418,0.854,0.546c0.324,0.129,0.669,0.193,1.037,0.193
					c0.419,0,0.774-0.061,1.064-0.182c0.29-0.121,0.539-0.278,0.745-0.469c0.147-0.132,0.274-0.3,0.38-0.502
					c0.107-0.202,0.189-0.428,0.248-0.678h-2.482V436.334z"/>
			</g>
			<g>
				<path style="fill:#FFFFFF;" d="M297.3,431.299c-0.006-1.224-0.959-2.121-2.189-2.14c-0.924-0.014-0.832,0.12-0.834-0.867
					c-0.003-1.097-0.007-2.194,0.003-3.292c0.003-0.379-0.112-0.691-0.362-0.976c-2.342-2.668-4.678-5.342-7.019-8.011
					c-0.12-0.137-0.275-0.244-0.414-0.366c-6.214,0-12.427,0-18.641,0c-0.794,0.293-1.14,0.868-1.138,1.709
					c0.01,3.748,0.004,7.496,0.004,11.243c0,0.556-0.003,0.589-0.55,0.551c-1.497-0.102-2.516,0.986-2.497,2.492
					c0.044,3.476,0.013,6.953,0.014,10.429c0.001,1.58,0.867,2.443,2.45,2.449c0.582,0.002,0.582,0.002,0.582,0.6
					c0,2.219-0.001,4.438,0.001,6.657c0.001,1.192,0.58,1.771,1.768,1.771c8.013,0.001,16.027,0.001,24.04,0
					c1.168,0,1.755-0.583,1.757-1.745c0.002-2.256,0-4.512,0.001-6.768c0-0.512,0.002-0.511,0.52-0.515
					c0.271-0.002,0.541,0.008,0.809-0.058c0.996-0.246,1.69-1.044,1.694-2.069C297.315,438.696,297.318,434.997,297.3,431.299z
					 M268.85,417.162c5.337,0,10.674,0,16.01,0c0.548,0,0.554,0.007,0.554,0.561c0.001,2.243-0.001,4.486,0.001,6.73
					c0.001,0.811,0.249,1.059,1.06,1.059c1.91,0.001,3.821,0,5.731,0.001c0.458,0,0.479,0.021,0.481,0.483
					c0.003,0.887,0.002,1.775,0,2.662c-0.001,0.477-0.024,0.498-0.504,0.499c-3.895,0.001-7.79,0-11.684,0
					c-3.882,0-7.765,0-11.647,0c-0.55,0-0.552-0.001-0.552-0.561c-0.001-3.624-0.001-7.247,0-10.871
					C268.299,417.166,268.303,417.162,268.85,417.162z M292.135,451.579c-3.883,0.001-7.766,0-11.65,0c-3.871,0-7.742,0-11.613,0
					c-0.572,0-0.574-0.002-0.574-0.579c-0.001-1.997-0.001-3.994,0.001-5.991c0-0.464,0.023-0.486,0.478-0.487
					c7.803-0.001,15.607-0.001,23.41,0c0.478,0,0.499,0.02,0.499,0.503c0.001,1.997,0.001,3.994,0,5.991
					C292.687,451.574,292.682,451.579,292.135,451.579z"/>
			</g>
			<g>
				<path style="fill:#FFFFFF;" d="M272.966,434.183v1.831h3.165v1.412h-3.165v1.831h3.518v1.412h-5.007v-7.897h5.007v1.412H272.966
					z"/>
				<path style="fill:#FFFFFF;" d="M277.852,440.669v-7.897h2.779c0.375,0,0.726,0.061,1.053,0.182
					c0.327,0.121,0.612,0.292,0.855,0.513c0.243,0.221,0.434,0.483,0.574,0.789c0.14,0.305,0.209,0.642,0.209,1.009
					c0,0.375-0.07,0.715-0.209,1.02c-0.14,0.305-0.331,0.568-0.574,0.789c-0.243,0.221-0.528,0.392-0.855,0.513
					c-0.327,0.121-0.678,0.182-1.053,0.182h-1.29v2.901H277.852z M280.653,436.356c0.389,0,0.684-0.111,0.882-0.331
					c0.199-0.22,0.298-0.474,0.298-0.761c0-0.14-0.024-0.276-0.072-0.408c-0.048-0.132-0.121-0.248-0.221-0.347
					c-0.099-0.099-0.222-0.178-0.37-0.237c-0.147-0.059-0.32-0.089-0.518-0.089h-1.312v2.173H280.653z"/>
				<path style="fill:#FFFFFF;" d="M286.797,440.845c-0.338,0-0.662-0.048-0.971-0.143c-0.309-0.095-0.592-0.239-0.849-0.43
					c-0.257-0.191-0.482-0.425-0.673-0.7c-0.191-0.276-0.342-0.597-0.452-0.965l1.401-0.551c0.103,0.397,0.283,0.726,0.541,0.987
					c0.257,0.261,0.595,0.392,1.015,0.392c0.154,0,0.303-0.02,0.447-0.061c0.143-0.04,0.272-0.099,0.386-0.176
					c0.114-0.077,0.204-0.175,0.27-0.292c0.066-0.118,0.1-0.254,0.1-0.408c0-0.147-0.026-0.279-0.077-0.397
					c-0.051-0.117-0.138-0.227-0.259-0.331c-0.121-0.103-0.279-0.202-0.474-0.298c-0.195-0.095-0.436-0.195-0.723-0.298
					l-0.485-0.176c-0.213-0.073-0.428-0.173-0.645-0.298c-0.217-0.125-0.414-0.276-0.59-0.452c-0.176-0.176-0.322-0.384-0.436-0.623
					c-0.114-0.239-0.171-0.509-0.171-0.81c0-0.309,0.061-0.597,0.182-0.866c0.121-0.268,0.294-0.503,0.518-0.706
					c0.224-0.202,0.493-0.36,0.805-0.474c0.312-0.114,0.66-0.171,1.042-0.171c0.397,0,0.741,0.053,1.031,0.16
					c0.29,0.107,0.537,0.243,0.739,0.408c0.202,0.165,0.365,0.348,0.491,0.546c0.125,0.199,0.217,0.386,0.276,0.563l-1.312,0.551
					c-0.074-0.221-0.208-0.419-0.403-0.596c-0.195-0.176-0.462-0.265-0.799-0.265c-0.324,0-0.592,0.075-0.805,0.226
					c-0.213,0.151-0.32,0.348-0.32,0.59c0,0.235,0.103,0.436,0.309,0.601c0.206,0.165,0.533,0.325,0.982,0.48l0.496,0.165
					c0.316,0.111,0.605,0.237,0.866,0.381c0.261,0.143,0.485,0.314,0.673,0.513c0.187,0.199,0.331,0.425,0.43,0.678
					c0.099,0.254,0.149,0.546,0.149,0.877c0,0.412-0.083,0.767-0.248,1.064c-0.165,0.298-0.377,0.542-0.634,0.734
					c-0.258,0.191-0.548,0.335-0.872,0.43C287.422,440.797,287.105,440.845,286.797,440.845z"/>
			</g>
			<g>
				<path style="fill:#FFFFFF;" d="M321.394,439.168l4.004-4.985h-3.827v-1.412h5.559v1.5l-3.96,4.985h4.004v1.412h-5.779V439.168z"
					/>
				<path style="fill:#FFFFFF;" d="M328.409,432.771h1.489v7.897h-1.489V432.771z"/>
				<path style="fill:#FFFFFF;" d="M331.486,440.669v-7.897h2.779c0.375,0,0.726,0.061,1.053,0.182
					c0.327,0.121,0.612,0.292,0.855,0.513s0.434,0.483,0.574,0.789c0.14,0.305,0.209,0.642,0.209,1.009
					c0,0.375-0.07,0.715-0.209,1.02c-0.14,0.305-0.331,0.568-0.574,0.789c-0.243,0.221-0.528,0.392-0.855,0.513
					c-0.327,0.121-0.678,0.182-1.053,0.182h-1.29v2.901H331.486z M334.288,436.356c0.389,0,0.684-0.111,0.882-0.331
					c0.199-0.22,0.298-0.474,0.298-0.761c0-0.14-0.024-0.276-0.072-0.408c-0.048-0.132-0.121-0.248-0.221-0.347
					c-0.099-0.099-0.222-0.178-0.37-0.237c-0.147-0.059-0.32-0.089-0.518-0.089h-1.312v2.173H334.288z"/>
			</g>
		</g>
		<g style="opacity:0.61;">
			<path style="fill:#FFFFFF;" d="M300.133,433.27h9.067v2.242h-9.067V433.27z M300.133,437.136h9.067v2.243h-9.067V437.136z"/>
		</g>
	</g>
	<g style="opacity:0.61;">
		<path style="fill:#FFFFFF;" d="M156.756,478.878h1.607c1.263,0,2.114,0.812,2.114,1.974c0,1.161-0.851,1.973-2.114,1.973h-1.607
			V478.878z M158.34,482.464c1.049,0,1.725-0.665,1.725-1.612c0-0.947-0.677-1.613-1.725-1.613h-1.167v3.225H158.34z"/>
		<path style="fill:#FFFFFF;" d="M165.139,480.851c0-1.15,0.879-2.007,2.075-2.007c1.184,0,2.069,0.851,2.069,2.007
			c0,1.156-0.885,2.007-2.069,2.007C166.019,482.858,165.139,482.002,165.139,480.851z M168.866,480.851
			c0-0.942-0.705-1.635-1.652-1.635c-0.953,0-1.663,0.693-1.663,1.635c0,0.941,0.71,1.635,1.663,1.635
			C168.162,482.486,168.866,481.793,168.866,480.851z"/>
		<path style="fill:#FFFFFF;" d="M179.596,478.878l-1.331,3.947h-0.44l-1.156-3.366l-1.161,3.366h-0.434l-1.331-3.947h0.429
			l1.139,3.394l1.178-3.394h0.389l1.161,3.411l1.156-3.411H179.596z"/>
		<path style="fill:#FFFFFF;" d="M187.731,478.878v3.947h-0.344l-2.537-3.202v3.202h-0.417v-3.947h0.344l2.543,3.203v-3.203H187.731
			z"/>
		<path style="fill:#FFFFFF;" d="M193.093,478.878h0.417v3.586h2.21v0.361h-2.627V478.878z"/>
		<path style="fill:#FFFFFF;" d="M200.061,480.851c0-1.15,0.879-2.007,2.075-2.007c1.184,0,2.069,0.851,2.069,2.007
			c0,1.156-0.885,2.007-2.069,2.007C200.941,482.858,200.061,482.002,200.061,480.851z M203.788,480.851
			c0-0.942-0.705-1.635-1.652-1.635c-0.953,0-1.663,0.693-1.663,1.635c0,0.941,0.71,1.635,1.663,1.635
			C203.083,482.486,203.788,481.793,203.788,480.851z"/>
		<path style="fill:#FFFFFF;" d="M211.636,481.77h-2.199l-0.474,1.054h-0.434l1.804-3.947h0.412l1.804,3.947h-0.44L211.636,481.77z
			 M211.484,481.432l-0.947-2.12l-0.947,2.12H211.484z"/>
		<path style="fill:#FFFFFF;" d="M217.28,478.878h1.607c1.263,0,2.114,0.812,2.114,1.974c0,1.161-0.851,1.973-2.114,1.973h-1.607
			V478.878z M218.864,482.464c1.049,0,1.725-0.665,1.725-1.612c0-0.947-0.677-1.613-1.725-1.613h-1.167v3.225H218.864z"/>
		<path style="fill:#FFFFFF;" d="M234.041,481.77h-2.199l-0.474,1.054h-0.434l1.804-3.947h0.412l1.804,3.947h-0.44L234.041,481.77z
			 M233.889,481.432l-0.947-2.12l-0.947,2.12H233.889z"/>
		<path style="fill:#FFFFFF;" d="M239.685,478.878h0.417v3.586h2.21v0.361h-2.627V478.878z"/>
		<path style="fill:#FFFFFF;" d="M247.082,478.878h0.417v3.586h2.21v0.361h-2.627V478.878z"/>
		<path style="fill:#FFFFFF;" d="M260.449,479.239v1.551h2.041v0.361h-2.041v1.675h-0.417v-3.947h2.706v0.361H260.449z"/>
		<path style="fill:#FFFFFF;" d="M267.678,478.878h0.417v3.947h-0.417V478.878z"/>
		<path style="fill:#FFFFFF;" d="M273.456,478.878h0.417v3.586h2.21v0.361h-2.627V478.878z"/>
		<path style="fill:#FFFFFF;" d="M283.644,482.464v0.361h-2.791v-3.947h2.706v0.361h-2.289v1.404h2.041v0.355h-2.041v1.466H283.644z
			"/>
		<path style="fill:#FFFFFF;" d="M294.672,479.239v1.551h2.041v0.361h-2.041v1.675h-0.417v-3.947h2.706v0.361H294.672z"/>
		<path style="fill:#FFFFFF;" d="M301.5,480.851c0-1.15,0.879-2.007,2.075-2.007c1.184,0,2.069,0.851,2.069,2.007
			c0,1.156-0.885,2.007-2.069,2.007C302.379,482.858,301.5,482.002,301.5,480.851z M305.226,480.851
			c0-0.942-0.705-1.635-1.652-1.635c-0.953,0-1.663,0.693-1.663,1.635c0,0.941,0.71,1.635,1.663,1.635
			C304.522,482.486,305.226,481.793,305.226,480.851z"/>
		<path style="fill:#FFFFFF;" d="M313.351,482.825l-0.902-1.269c-0.102,0.011-0.203,0.017-0.316,0.017h-1.06v1.252h-0.417v-3.947
			h1.477c1.004,0,1.613,0.507,1.613,1.353c0,0.62-0.327,1.054-0.902,1.24l0.964,1.353H313.351z M313.328,480.231
			c0-0.632-0.417-0.992-1.207-0.992h-1.048v1.979h1.048C312.911,481.218,313.328,480.851,313.328,480.231z"/>
		<path style="fill:#FFFFFF;" d="M322.907,478.878v3.947h-0.4v-3.158l-1.551,2.656h-0.197l-1.551-2.639v3.14h-0.4v-3.947h0.344
			l1.714,2.926l1.697-2.926H322.907z"/>
		<path style="fill:#FFFFFF;" d="M330.744,481.77h-2.199l-0.473,1.054h-0.434l1.804-3.947h0.411l1.804,3.947h-0.44L330.744,481.77z
			 M330.592,481.432l-0.947-2.12l-0.947,2.12H330.592z"/>
		<path style="fill:#FFFFFF;" d="M336.957,479.239h-1.387v-0.361h3.192v0.361h-1.387v3.586h-0.417V479.239z"/>
		<path style="fill:#FFFFFF;" d="M343.063,482.346l0.164-0.321c0.282,0.276,0.784,0.479,1.302,0.479c0.739,0,1.06-0.31,1.06-0.699
			c0-1.083-2.43-0.417-2.43-1.877c0-0.581,0.451-1.083,1.455-1.083c0.446,0,0.908,0.13,1.224,0.35l-0.141,0.333
			c-0.338-0.22-0.733-0.327-1.083-0.327c-0.722,0-1.043,0.321-1.043,0.716c0,1.083,2.43,0.429,2.43,1.866
			c0,0.581-0.462,1.077-1.472,1.077C343.937,482.858,343.356,482.65,343.063,482.346z"/>
	</g>
</g>
<g>
</g>
<g>
	
		<rect x="37.804" y="207.092" transform="matrix(0.7071 -0.7071 0.7071 0.7071 -147.1719 115.8914)" style="fill:#E21118;" width="56.989" height="56.989"/>
	<polygon style="fill:#FFFFFF;" points="46.079,215.369 46.079,255.805 58.019,243.867 86.515,255.805 86.515,215.685 
		74.733,226.832 	"/>
	
		<line style="fill:none;stroke:#282321;stroke-width:0.347;stroke-miterlimit:10;" x1="136.607" y1="300.512" x2="473.999" y2="300.512"/>
	<g>
		<path style="fill:#2B2523;" d="M229.637,316.316c0.881,2.943,1.764,5.609,2.642,8.003c0.881,2.394,1.744,4.588,2.602,6.582
			c0.632-2.161,1.265-4.708,1.904-7.636c0.635-2.929,1.256-6.024,1.847-9.285h1.838c-0.338,1.961-0.674,3.801-1.006,5.514
			c-0.338,1.713-0.687,3.342-1.059,4.889c-0.367,1.544-0.756,3.031-1.162,4.443c-0.408,1.421-0.848,2.818-1.327,4.188h-2.009
			c-0.433-1.047-0.863-2.093-1.293-3.134c-0.428-1.045-0.856-2.122-1.28-3.226c-0.424-1.107-0.848-2.264-1.272-3.476
			c-0.424-1.204-0.848-2.488-1.278-3.841c-0.433,1.359-0.867,2.644-1.293,3.854c-0.428,1.21-0.852,2.368-1.274,3.477
			c-0.42,1.107-0.848,2.181-1.278,3.228c-0.43,1.041-0.87,2.082-1.316,3.118h-1.972c-0.492-1.373-0.951-2.769-1.361-4.192
			c-0.415-1.417-0.802-2.905-1.159-4.452c-0.358-1.544-0.703-3.173-1.023-4.884c-0.327-1.713-0.654-3.547-0.986-5.506h1.922
			c0.286,1.608,0.573,3.189,0.861,4.737c0.288,1.546,0.595,3.046,0.916,4.489c0.323,1.451,0.654,2.817,0.988,4.107
			c0.334,1.293,0.672,2.486,1.014,3.588c0.777-2.033,1.623-4.232,2.528-6.604c0.898-2.365,1.788-5.031,2.662-7.981H229.637z"/>
		<path style="fill:#2B2523;" d="M243.107,325.901c0-1.245,0.18-2.33,0.536-3.252c0.358-0.929,0.823-1.7,1.403-2.324
			c0.575-0.619,1.234-1.081,1.974-1.386c0.742-0.299,1.511-0.454,2.295-0.454c1.741,0,3.127,0.569,4.161,1.7
			c1.034,1.14,1.551,2.888,1.551,5.247c0,0.147-0.002,0.296-0.011,0.442c-0.013,0.145-0.024,0.283-0.04,0.411h-9.973
			c0.055,1.741,0.487,3.077,1.291,4.014c0.808,0.931,2.088,1.399,3.847,1.399c0.969,0,1.739-0.094,2.308-0.279
			c0.567-0.18,0.98-0.336,1.238-0.466l0.329,1.54c-0.257,0.145-0.742,0.321-1.443,0.521c-0.705,0.202-1.535,0.301-2.486,0.301
			c-1.243,0-2.306-0.182-3.187-0.547c-0.876-0.369-1.599-0.878-2.168-1.539c-0.569-0.661-0.979-1.445-1.238-2.348
			C243.237,327.976,243.107,326.986,243.107,325.901 M253.188,324.775c-0.039-1.485-0.386-2.637-1.045-3.461
			c-0.655-0.824-1.592-1.236-2.8-1.236c-0.643,0-1.214,0.129-1.72,0.387c-0.503,0.253-0.942,0.599-1.316,1.028
			c-0.375,0.43-0.666,0.931-0.881,1.496c-0.206,0.569-0.33,1.16-0.369,1.785H253.188z"/>
		<path style="fill:#2B2523;" d="M263.788,318.485c0.935,0,1.728,0.132,2.378,0.398c0.65,0.268,1.177,0.632,1.579,1.098
			c0.4,0.466,0.696,1.019,0.878,1.663c0.187,0.637,0.277,1.337,0.277,2.088v8.953c-0.185,0.055-0.45,0.116-0.797,0.18
			c-0.349,0.064-0.749,0.132-1.212,0.206c-0.455,0.073-0.964,0.132-1.522,0.178c-0.555,0.046-1.133,0.07-1.715,0.07
			c-0.751,0-1.445-0.083-2.078-0.248c-0.63-0.163-1.179-0.426-1.643-0.782c-0.468-0.358-0.832-0.817-1.1-1.373
			c-0.268-0.56-0.397-1.239-0.397-2.049c0-0.767,0.143-1.427,0.437-1.976c0.294-0.551,0.705-1.003,1.236-1.359
			c0.531-0.358,1.16-0.621,1.895-0.784c0.734-0.165,1.529-0.25,2.389-0.25c0.257,0,0.527,0.018,0.813,0.044
			c0.283,0.028,0.556,0.062,0.823,0.112c0.264,0.046,0.498,0.088,0.689,0.136c0.191,0.044,0.321,0.086,0.397,0.121v-0.878
			c0-0.496-0.037-0.977-0.11-1.441c-0.072-0.468-0.233-0.891-0.477-1.263c-0.25-0.378-0.599-0.678-1.043-0.907
			c-0.453-0.231-1.039-0.343-1.777-0.343c-1.039,0-1.82,0.073-2.332,0.22c-0.514,0.141-0.89,0.264-1.127,0.354l-0.246-1.564
			c0.312-0.143,0.788-0.283,1.441-0.411C262.092,318.548,262.876,318.485,263.788,318.485 M263.954,331.725
			c0.696,0,1.305-0.024,1.831-0.066c0.52-0.048,0.964-0.108,1.329-0.182v-4.998c-0.202-0.092-0.521-0.189-0.958-0.29
			c-0.439-0.099-1.043-0.154-1.816-0.154c-0.437,0-0.898,0.037-1.372,0.099c-0.477,0.064-0.914,0.198-1.324,0.415
			c-0.402,0.209-0.727,0.498-0.986,0.863c-0.255,0.367-0.384,0.852-0.384,1.454c0,0.534,0.086,0.98,0.259,1.348
			c0.176,0.365,0.42,0.657,0.744,0.881c0.321,0.217,0.703,0.376,1.155,0.477C262.878,331.675,263.388,331.725,263.954,331.725"/>
		<path style="fill:#2B2523;" d="M277.523,333.263c-0.604-0.018-1.131-0.095-1.577-0.233c-0.45-0.138-0.824-0.349-1.127-0.633
			c-0.301-0.283-0.532-0.65-0.69-1.098c-0.152-0.448-0.231-1.012-0.231-1.689v-17.578l1.785-0.33v17.852
			c0,0.444,0.044,0.793,0.123,1.059c0.083,0.264,0.207,0.476,0.373,0.63c0.163,0.156,0.38,0.272,0.648,0.345
			c0.263,0.073,0.578,0.138,0.946,0.191L277.523,333.263z"/>
		<path style="fill:#2B2523;" d="M283.071,318.815h5.661v1.511h-5.661v7.554c0,0.808,0.068,1.462,0.206,1.965
			c0.139,0.501,0.334,0.89,0.595,1.166c0.252,0.275,0.564,0.459,0.931,0.549c0.365,0.092,0.769,0.14,1.21,0.14
			c0.751,0,1.355-0.088,1.812-0.261c0.455-0.176,0.812-0.34,1.072-0.483l0.439,1.485c-0.259,0.165-0.705,0.353-1.346,0.56
			c-0.641,0.213-1.337,0.318-2.088,0.318c-0.883,0-1.619-0.114-2.214-0.345c-0.589-0.226-1.07-0.578-1.427-1.041
			c-0.356-0.466-0.606-1.05-0.755-1.746c-0.147-0.696-0.22-1.52-0.22-2.469V314.64l1.785-0.33V318.815z"/>
		<path style="fill:#2B2523;" d="M292.497,333.016V312.03l1.783-0.329v7.524c0.582-0.219,1.181-0.389,1.786-0.507
			c0.6-0.121,1.206-0.178,1.81-0.178c1.098,0,2.016,0.154,2.745,0.466c0.733,0.312,1.32,0.756,1.759,1.333
			c0.442,0.577,0.749,1.269,0.924,2.073c0.171,0.808,0.257,1.693,0.257,2.666v7.937h-1.781v-7.363c0-1.004-0.07-1.856-0.211-2.554
			c-0.134-0.696-0.364-1.261-0.685-1.702c-0.321-0.439-0.745-0.755-1.276-0.951c-0.532-0.189-1.201-0.288-2.007-0.288
			c-0.312,0-0.645,0.031-1.003,0.086c-0.358,0.055-0.689,0.114-1.004,0.178c-0.307,0.064-0.586,0.132-0.835,0.206
			c-0.246,0.073-0.409,0.129-0.479,0.165v12.223H292.497z"/>
		<path style="fill:#2B2523;" d="M318.23,331.752c1.026,0,1.875-0.169,2.541-0.507c0.668-0.34,1.004-0.911,1.004-1.719
			c0-0.386-0.061-0.716-0.18-0.99c-0.121-0.274-0.316-0.521-0.589-0.742c-0.277-0.219-0.637-0.428-1.087-0.632
			c-0.448-0.198-1.006-0.437-1.658-0.712c-0.534-0.22-1.036-0.443-1.517-0.672c-0.472-0.229-0.894-0.494-1.263-0.799
			c-0.365-0.301-0.655-0.663-0.878-1.085c-0.222-0.422-0.327-0.933-0.327-1.537c0-1.155,0.433-2.086,1.302-2.806
			c0.872-0.709,2.066-1.069,3.586-1.069c0.971,0,1.774,0.083,2.4,0.25c0.633,0.163,1.08,0.31,1.333,0.437l-0.408,1.596
			c-0.22-0.114-0.591-0.257-1.116-0.441c-0.518-0.185-1.283-0.277-2.288-0.277c-0.408,0-0.788,0.04-1.144,0.127
			c-0.36,0.079-0.67,0.211-0.946,0.386c-0.277,0.171-0.494,0.393-0.659,0.661c-0.163,0.264-0.252,0.591-0.252,0.975
			c0,0.386,0.073,0.716,0.22,0.993c0.147,0.274,0.362,0.518,0.646,0.727c0.285,0.213,0.63,0.406,1.045,0.593
			c0.411,0.182,0.883,0.38,1.416,0.599c0.549,0.22,1.074,0.444,1.575,0.674c0.503,0.226,0.949,0.499,1.337,0.819
			c0.384,0.321,0.692,0.707,0.931,1.155c0.239,0.446,0.358,1.01,0.358,1.687c0,1.282-0.483,2.255-1.443,2.914
			c-0.958,0.657-2.273,0.988-3.94,0.988c-1.247,0-2.194-0.107-2.855-0.316c-0.659-0.209-1.098-0.371-1.318-0.483l0.465-1.618
			c0.057,0.035,0.173,0.095,0.36,0.176c0.178,0.083,0.43,0.174,0.738,0.275c0.316,0.103,0.685,0.187,1.116,0.257
			C317.164,331.715,317.665,331.752,318.23,331.752"/>
		<path style="fill:#2B2523;" d="M326.69,325.901c0-1.245,0.178-2.33,0.538-3.252c0.353-0.929,0.823-1.7,1.399-2.324
			c0.578-0.619,1.238-1.081,1.977-1.386c0.742-0.299,1.506-0.454,2.293-0.454c1.741,0,3.125,0.569,4.161,1.7
			c1.036,1.14,1.551,2.888,1.551,5.247c0,0.147-0.004,0.296-0.013,0.442c-0.006,0.145-0.024,0.283-0.04,0.411h-9.968
			c0.053,1.741,0.485,3.077,1.287,4.014c0.806,0.931,2.089,1.399,3.847,1.399c0.968,0,1.742-0.094,2.31-0.279
			c0.567-0.18,0.977-0.336,1.232-0.466l0.33,1.54c-0.257,0.145-0.734,0.321-1.443,0.521c-0.703,0.202-1.535,0.301-2.482,0.301
			c-1.247,0-2.31-0.182-3.189-0.547c-0.876-0.369-1.603-0.878-2.17-1.539c-0.565-0.661-0.979-1.445-1.234-2.348
			C326.819,327.976,326.69,326.986,326.69,325.901 M336.77,324.775c-0.039-1.485-0.382-2.637-1.045-3.461
			c-0.657-0.824-1.592-1.236-2.8-1.236c-0.641,0-1.21,0.129-1.713,0.387c-0.509,0.253-0.947,0.599-1.32,1.028
			c-0.375,0.43-0.668,0.931-0.883,1.496c-0.207,0.569-0.331,1.16-0.367,1.785H336.77z"/>
		<path style="fill:#2B2523;" d="M344.737,318.815h5.661v1.511h-5.661v7.554c0,0.808,0.068,1.462,0.204,1.965
			c0.14,0.501,0.34,0.89,0.593,1.166c0.255,0.275,0.567,0.459,0.933,0.549c0.367,0.092,0.769,0.14,1.21,0.14
			c0.751,0,1.353-0.088,1.814-0.261c0.459-0.176,0.815-0.34,1.069-0.483l0.442,1.485c-0.257,0.165-0.705,0.353-1.346,0.56
			c-0.644,0.213-1.338,0.318-2.088,0.318c-0.881,0-1.619-0.114-2.214-0.345c-0.595-0.226-1.07-0.578-1.427-1.041
			c-0.356-0.466-0.61-1.05-0.758-1.746c-0.147-0.696-0.215-1.52-0.215-2.469V314.64l1.783-0.33V318.815z"/>
		<path style="fill:#2B2523;" d="M357.069,331.752c1.026,0,1.873-0.169,2.543-0.507c0.668-0.34,1.003-0.911,1.003-1.719
			c0-0.386-0.062-0.716-0.178-0.99c-0.123-0.274-0.318-0.521-0.593-0.742c-0.275-0.219-0.635-0.428-1.081-0.632
			c-0.454-0.198-1.006-0.437-1.665-0.712c-0.531-0.22-1.032-0.443-1.509-0.672c-0.479-0.229-0.898-0.494-1.267-0.799
			c-0.364-0.301-0.655-0.663-0.878-1.085c-0.222-0.422-0.327-0.933-0.327-1.537c0-1.155,0.433-2.086,1.304-2.806
			c0.87-0.709,2.064-1.069,3.582-1.069c0.971,0,1.774,0.083,2.402,0.25c0.635,0.163,1.08,0.31,1.333,0.437l-0.409,1.596
			c-0.218-0.114-0.589-0.257-1.111-0.441c-0.521-0.185-1.287-0.277-2.291-0.277c-0.408,0-0.788,0.04-1.144,0.127
			c-0.356,0.079-0.67,0.211-0.946,0.386c-0.279,0.171-0.494,0.393-0.663,0.661c-0.162,0.264-0.248,0.591-0.248,0.975
			c0,0.386,0.073,0.716,0.22,0.993c0.149,0.274,0.364,0.518,0.644,0.727c0.288,0.213,0.635,0.406,1.048,0.593
			c0.409,0.182,0.883,0.38,1.414,0.599c0.547,0.22,1.078,0.444,1.583,0.674c0.499,0.226,0.942,0.499,1.327,0.819
			c0.386,0.321,0.694,0.707,0.935,1.155c0.241,0.446,0.36,1.01,0.36,1.687c0,1.282-0.481,2.255-1.447,2.914
			c-0.96,0.657-2.275,0.988-3.94,0.988c-1.243,0-2.196-0.107-2.857-0.316c-0.657-0.209-1.096-0.371-1.316-0.483l0.465-1.618
			c0.057,0.035,0.174,0.095,0.36,0.176c0.178,0.083,0.426,0.174,0.74,0.275c0.312,0.103,0.683,0.187,1.115,0.257
			C356.004,331.715,356.504,331.752,357.069,331.752"/>
		<path style="fill:#2B2523;" d="M376.983,333.317c-0.595-1.118-1.175-2.282-1.737-3.492c-0.558-1.206-1.081-2.433-1.568-3.663
			c-0.488-1.238-0.935-2.471-1.335-3.707c-0.406-1.234-0.756-2.447-1.047-3.641h1.897c0.202,0.878,0.459,1.827,0.767,2.842
			c0.308,1.017,0.663,2.067,1.056,3.147c0.395,1.081,0.83,2.19,1.302,3.323c0.479,1.137,0.999,2.253,1.557,3.349
			c0.409-1.131,0.773-2.196,1.085-3.204c0.316-1.008,0.606-2.01,0.876-3.006c0.266-0.999,0.527-2.018,0.779-3.061
			c0.248-1.041,0.503-2.174,0.762-3.391h1.785c-0.591,2.657-1.267,5.24-2.009,7.75c-0.74,2.517-1.555,4.809-2.435,6.889
			c-0.347,0.824-0.705,1.535-1.076,2.13c-0.367,0.597-0.773,1.085-1.228,1.471c-0.448,0.386-0.975,0.668-1.57,0.852
			c-0.597,0.184-1.298,0.272-2.108,0.272c-0.459,0-0.879-0.055-1.256-0.16c-0.38-0.112-0.613-0.198-0.705-0.252l0.356-1.482
			c0.075,0.055,0.281,0.132,0.619,0.233c0.343,0.103,0.696,0.151,1.063,0.151c0.514,0,0.977-0.053,1.392-0.163
			c0.409-0.11,0.784-0.297,1.111-0.562c0.332-0.268,0.632-0.61,0.898-1.028C376.48,334.489,376.735,333.962,376.983,333.317"/>
		<path style="fill:#2B2523;" d="M398.71,325.928c0,1.116-0.16,2.134-0.481,3.05c-0.32,0.918-0.767,1.693-1.346,2.335
			c-0.577,0.643-1.26,1.14-2.047,1.495c-0.786,0.362-1.656,0.536-2.607,0.536c-0.955,0-1.825-0.174-2.609-0.536
			c-0.791-0.354-1.471-0.852-2.047-1.495c-0.577-0.643-1.026-1.417-1.348-2.335c-0.318-0.916-0.479-1.933-0.479-3.05
			c0-1.113,0.162-2.134,0.479-3.046c0.321-0.916,0.771-1.7,1.348-2.35c0.577-0.652,1.256-1.155,2.047-1.513
			c0.784-0.356,1.654-0.534,2.609-0.534c0.951,0,1.821,0.178,2.607,0.534c0.788,0.358,1.471,0.861,2.047,1.513
			c0.578,0.65,1.026,1.434,1.346,2.35C398.55,323.795,398.71,324.816,398.71,325.928 M396.813,325.928
			c0-1.777-0.409-3.191-1.234-4.243c-0.826-1.052-1.941-1.579-3.351-1.579c-1.412,0-2.526,0.527-3.349,1.579
			c-0.826,1.052-1.238,2.466-1.238,4.243c0,1.779,0.411,3.187,1.238,4.23c0.823,1.047,1.937,1.568,3.349,1.568
			c1.41,0,2.525-0.521,3.351-1.568C396.404,329.116,396.813,327.707,396.813,325.928"/>
		<path style="fill:#2B2523;" d="M413.957,332.523c-0.536,0.143-1.249,0.308-2.145,0.492c-0.894,0.182-1.994,0.277-3.298,0.277
			c-1.059,0-1.948-0.156-2.659-0.466c-0.72-0.312-1.294-0.755-1.731-1.324c-0.444-0.564-0.756-1.25-0.949-2.058
			c-0.193-0.801-0.29-1.691-0.29-2.664v-7.967h1.785v7.39c0,1.006,0.073,1.858,0.22,2.554c0.147,0.698,0.384,1.261,0.714,1.691
			c0.327,0.43,0.755,0.738,1.276,0.931c0.521,0.195,1.16,0.292,1.911,0.292c0.841,0,1.573-0.046,2.2-0.136
			c0.619-0.094,1.014-0.176,1.177-0.25v-12.472h1.788V332.523z"/>
		<path style="fill:#2B2523;" d="M431.093,311.701c0.771,0,1.397,0.062,1.884,0.178c0.487,0.119,0.802,0.226,0.949,0.316
			l-0.358,1.535c-0.202-0.086-0.501-0.187-0.894-0.285c-0.395-0.099-0.896-0.151-1.498-0.151c-1.26,0-2.167,0.319-2.703,0.962
			c-0.542,0.637-0.813,1.667-0.813,3.074v1.485h5.712v1.509h-5.712v12.691h-1.783v-15.737c0-1.851,0.426-3.244,1.276-4.177
			C428.001,312.167,429.315,311.701,431.093,311.701"/>
		<path style="fill:#2B2523;" d="M441.503,318.541c0.586,0,1.14,0.048,1.665,0.136c0.521,0.094,0.881,0.184,1.083,0.275
			l-0.358,1.537c-0.147-0.072-0.441-0.151-0.894-0.231c-0.448-0.081-1.036-0.123-1.768-0.123c-0.769,0-1.386,0.053-1.851,0.165
			c-0.47,0.11-0.782,0.2-0.924,0.274v12.443h-1.785v-13.541c0.455-0.202,1.087-0.409,1.893-0.619
			C439.373,318.647,440.352,318.541,441.503,318.541"/>
		<path style="fill:#2B2523;" d="M446.56,325.901c0-1.245,0.178-2.33,0.536-3.252c0.356-0.929,0.824-1.7,1.399-2.324
			c0.58-0.619,1.238-1.081,1.977-1.386c0.742-0.299,1.506-0.454,2.295-0.454c1.741,0,3.125,0.569,4.162,1.7
			c1.032,1.14,1.55,2.888,1.55,5.247c0,0.147-0.004,0.296-0.015,0.442c-0.009,0.145-0.022,0.283-0.04,0.411h-9.97
			c0.055,1.741,0.488,3.077,1.293,4.014c0.804,0.931,2.089,1.399,3.845,1.399c0.969,0,1.741-0.094,2.304-0.279
			c0.567-0.18,0.984-0.336,1.238-0.466l0.329,1.54c-0.255,0.145-0.736,0.321-1.439,0.521c-0.705,0.202-1.535,0.301-2.482,0.301
			c-1.247,0-2.312-0.182-3.189-0.547c-0.878-0.369-1.603-0.878-2.17-1.539s-0.982-1.445-1.236-2.348
			C446.686,327.976,446.56,326.986,446.56,325.901 M456.638,324.775c-0.037-1.485-0.38-2.637-1.043-3.461
			c-0.661-0.824-1.592-1.236-2.8-1.236c-0.641,0-1.215,0.129-1.719,0.387c-0.501,0.253-0.94,0.599-1.318,1.028
			c-0.373,0.43-0.668,0.931-0.878,1.496c-0.215,0.569-0.336,1.16-0.371,1.785H456.638z"/>
		<path style="fill:#2B2523;" d="M462.077,325.901c0-1.245,0.182-2.33,0.536-3.252c0.356-0.929,0.824-1.7,1.401-2.324
			c0.578-0.619,1.236-1.081,1.979-1.386c0.742-0.299,1.506-0.454,2.295-0.454c1.737,0,3.123,0.569,4.159,1.7
			c1.036,1.14,1.553,2.888,1.553,5.247c0,0.147-0.005,0.296-0.015,0.442c-0.009,0.145-0.022,0.283-0.04,0.411h-9.972
			c0.053,1.741,0.485,3.077,1.291,4.014c0.806,0.931,2.086,1.399,3.845,1.399c0.969,0,1.742-0.094,2.308-0.279
			c0.567-0.18,0.98-0.336,1.234-0.466l0.329,1.54c-0.252,0.145-0.734,0.321-1.436,0.521c-0.709,0.202-1.535,0.301-2.49,0.301
			c-1.243,0-2.306-0.182-3.186-0.547c-0.878-0.369-1.599-0.878-2.167-1.539c-0.569-0.661-0.986-1.445-1.238-2.348
			C462.207,327.976,462.077,326.986,462.077,325.901 M472.158,324.775c-0.039-1.485-0.384-2.637-1.043-3.461
			c-0.661-0.824-1.596-1.236-2.802-1.236c-0.639,0-1.214,0.129-1.717,0.387c-0.505,0.253-0.944,0.599-1.32,1.028
			c-0.375,0.43-0.667,0.931-0.879,1.496c-0.209,0.569-0.332,1.16-0.371,1.785H472.158z"/>
		<path style="fill:#2B2523;" d="M143.663,243.573c0.96,1.652,2.021,3.679,3.198,6.07c1.171,2.392,2.372,4.908,3.59,7.541
			c1.219,2.633,2.425,5.308,3.623,8.024c1.199,2.723,2.293,5.235,3.298,7.543c1.002-2.308,2.089-4.82,3.263-7.543
			c1.173-2.716,2.372-5.391,3.588-8.024c1.217-2.633,2.416-5.148,3.589-7.541c1.175-2.391,2.242-4.418,3.198-6.07h7.412
			c0.398,3.307,0.775,6.817,1.131,10.543c0.353,3.718,0.672,7.522,0.96,11.42c0.288,3.894,0.554,7.807,0.797,11.747
			c0.244,3.94,0.454,7.778,0.63,11.519h-8.092c-0.176-5.266-0.387-10.679-0.633-16.249c-0.239-5.571-0.608-10.967-1.094-16.189
			c-0.481,1.004-1.045,2.201-1.698,3.591c-0.65,1.392-1.346,2.905-2.086,4.535c-0.74,1.63-1.493,3.32-2.253,5.06
			c-0.766,1.737-1.502,3.422-2.218,5.057c-0.723,1.63-1.383,3.156-1.99,4.566c-0.611,1.416-1.133,2.624-1.568,3.624h-6.131
			c-0.443-1.001-0.96-2.218-1.572-3.656c-0.608-1.436-1.271-2.971-1.99-4.599c-0.718-1.63-1.456-3.32-2.218-5.058
			c-0.76-1.741-1.509-3.417-2.251-5.027c-0.745-1.607-1.438-3.119-2.088-4.537c-0.657-1.412-1.221-2.598-1.698-3.556
			c-0.487,5.222-0.856,10.618-1.098,16.189c-0.244,5.571-0.457,10.983-0.633,16.249h-8.092c0.18-3.742,0.386-7.614,0.63-11.617
			c0.246-4.006,0.507-7.976,0.797-11.911c0.288-3.936,0.608-7.756,0.968-11.453c0.353-3.7,0.729-7.113,1.129-10.249H143.663z"/>
		<path style="fill:#2B2523;" d="M215.422,287.76c-1.522,0.393-3.503,0.791-5.94,1.204c-2.435,0.417-5.113,0.622-8.025,0.622
			c-2.741,0-5.038-0.393-6.887-1.177c-1.849-0.782-3.325-1.867-4.436-3.259c-1.111-1.394-1.906-3.059-2.385-5
			c-0.481-1.93-0.716-4.05-0.716-6.362v-19.121h7.895v17.885c0,3.652,0.536,6.263,1.597,7.829c1.07,1.57,2.928,2.35,5.582,2.35
			c0.96,0,1.968-0.042,3.033-0.132c1.069-0.086,1.864-0.195,2.385-0.325v-27.607h7.897V287.76z"/>
		<path style="fill:#2B2523;" d="M221.429,245.663l7.895-1.304v10.306h12.14v6.593h-12.14v13.903c0,2.743,0.431,4.698,1.304,5.875
			c0.872,1.175,2.352,1.764,4.44,1.764c1.438,0,2.708-0.154,3.815-0.457c1.111-0.307,1.994-0.589,2.648-0.85l1.305,6.266
			c-0.918,0.391-2.113,0.789-3.589,1.204c-1.48,0.415-3.22,0.621-5.224,0.621c-2.44,0-4.469-0.323-6.103-0.977
			c-1.63-0.657-2.927-1.599-3.885-2.839c-0.957-1.245-1.629-2.739-2.022-4.508c-0.391-1.761-0.584-3.771-0.584-6.033V245.663z"/>
		<path style="fill:#2B2523;" d="M273.446,287.76c-1.526,0.393-3.505,0.791-5.941,1.204c-2.44,0.417-5.113,0.622-8.025,0.622
			c-2.743,0-5.04-0.393-6.891-1.177c-1.847-0.782-3.325-1.867-4.434-3.259c-1.111-1.394-1.904-3.059-2.385-5
			c-0.479-1.93-0.714-4.05-0.714-6.362v-19.121h7.895v17.885c0,3.652,0.532,6.263,1.601,7.829c1.065,1.57,2.925,2.35,5.576,2.35
			c0.958,0,1.974-0.042,3.035-0.132c1.065-0.086,1.862-0.195,2.385-0.325v-27.607h7.899V287.76z"/>
		<path style="fill:#2B2523;" d="M291.196,253.822c2.611,0,4.809,0.325,6.593,0.98c1.781,0.648,3.206,1.564,4.273,2.738
			c1.07,1.177,1.829,2.604,2.286,4.276c0.457,1.674,0.683,3.511,0.683,5.514v20.692c-1.215,0.257-3.055,0.575-5.516,0.944
			c-2.457,0.371-5.233,0.553-8.319,0.553c-2.047,0-3.914-0.196-5.609-0.582c-1.7-0.395-3.151-1.023-4.342-1.893
			c-1.199-0.87-2.135-2.003-2.811-3.395c-0.676-1.395-1.008-3.11-1.008-5.159c0-1.957,0.38-3.61,1.14-4.959
			c0.762-1.346,1.796-2.447,3.099-3.296c1.304-0.846,2.82-1.458,4.539-1.827c1.717-0.369,3.511-0.554,5.382-0.554
			c0.87,0,1.785,0.055,2.743,0.16c0.957,0.116,1.979,0.297,3.066,0.556v-1.304c0-0.916-0.11-1.781-0.325-2.615
			c-0.217-0.819-0.599-1.551-1.14-2.185c-0.545-0.628-1.265-1.118-2.154-1.467c-0.892-0.347-2.016-0.52-3.364-0.52
			c-1.827,0-3.503,0.13-5.027,0.389c-1.522,0.261-2.761,0.567-3.72,0.914l-0.977-6.393c1.001-0.353,2.458-0.7,4.372-1.048
			C286.975,253.995,289.022,253.822,291.196,253.822 M291.848,283.256c2.435,0,4.284-0.13,5.547-0.393v-8.745
			c-0.433-0.127-1.065-0.261-1.887-0.391c-0.834-0.13-1.744-0.196-2.745-0.196c-0.868,0-1.75,0.066-2.642,0.196
			c-0.892,0.13-1.698,0.369-2.414,0.718c-0.722,0.347-1.296,0.841-1.733,1.467c-0.433,0.632-0.652,1.427-0.652,2.385
			c0,1.871,0.589,3.165,1.764,3.881C288.258,282.9,289.845,283.256,291.848,283.256"/>
		<path style="fill:#2B2523;" d="M322.912,289.456c-2.345-0.042-4.296-0.307-5.842-0.784c-1.542-0.477-2.769-1.164-3.685-2.055
			c-0.914-0.896-1.557-2.003-1.922-3.332c-0.369-1.324-0.558-2.835-0.558-4.535v-39.288l7.899-1.304v39.09
			c0,0.96,0.075,1.766,0.229,2.418c0.152,0.652,0.422,1.208,0.812,1.665c0.397,0.457,0.929,0.808,1.605,1.043
			c0.672,0.241,1.529,0.424,2.576,0.554L322.912,289.456z"/>
		<polygon style="fill:#2B2523;" points="343.412,288.804 343.412,243.574 371.992,243.574 371.992,250.555 351.636,250.555 
			351.636,262.107 369.712,262.107 369.712,269.092 351.636,269.092 351.636,288.804 		"/>
		<path style="fill:#2B2523;" d="M401.891,287.76c-1.526,0.393-3.505,0.791-5.94,1.204c-2.44,0.417-5.115,0.622-8.025,0.622
			c-2.747,0-5.044-0.393-6.891-1.177c-1.849-0.782-3.329-1.867-4.436-3.259c-1.111-1.394-1.902-3.059-2.381-5
			c-0.481-1.93-0.72-4.05-0.72-6.362v-19.121h7.897v17.885c0,3.652,0.532,6.263,1.599,7.829c1.069,1.57,2.925,2.35,5.58,2.35
			c0.955,0,1.97-0.042,3.035-0.132c1.065-0.086,1.86-0.195,2.381-0.325v-27.607h7.901V287.76z"/>
		<path style="fill:#2B2523;" d="M408.284,255.778c1.526-0.433,3.505-0.846,5.941-1.238c2.435-0.397,5.132-0.588,8.093-0.588
			c2.782,0,5.11,0.378,6.983,1.14c1.871,0.76,3.362,1.829,4.474,3.2c1.105,1.366,1.891,3.022,2.345,4.959
			c0.457,1.933,0.689,4.054,0.689,6.364v19.185h-7.902v-17.947c0-1.825-0.118-3.38-0.356-4.664
			c-0.241-1.287-0.633-2.326-1.175-3.134c-0.545-0.808-1.285-1.392-2.222-1.763c-0.933-0.369-2.073-0.553-3.424-0.553
			c-1.003,0-2.044,0.064-3.132,0.193c-1.089,0.134-1.895,0.241-2.416,0.325v27.543h-7.897V255.778z"/>
		<path style="fill:#2B2523;" d="M471.66,287.761c-1.57,0.477-3.538,0.911-5.907,1.3c-2.376,0.397-4.864,0.589-7.475,0.589
			c-2.699,0-5.112-0.411-7.241-1.238c-2.135-0.826-3.951-2.01-5.453-3.56c-1.504-1.54-2.657-3.415-3.459-5.611
			c-0.804-2.2-1.206-4.667-1.206-7.41c0-2.694,0.336-5.141,1.01-7.341c0.676-2.198,1.663-4.076,2.969-5.644
			c1.307-1.568,2.899-2.776,4.763-3.623c1.873-0.848,4.027-1.271,6.465-1.271c1.652,0,3.11,0.193,4.372,0.586
			c1.261,0.389,2.352,0.826,3.263,1.305v-16.383l7.901-1.307V287.761z M449.01,271.641c0,3.479,0.826,6.21,2.48,8.187
			c1.652,1.981,3.937,2.971,6.854,2.971c1.261,0,2.334-0.051,3.228-0.163c0.891-0.107,1.623-0.228,2.187-0.362v-19.578
			c-0.692-0.477-1.623-0.924-2.772-1.337c-1.153-0.413-2.378-0.619-3.687-0.619c-2.873,0-4.97,0.979-6.3,2.936
			C449.673,265.635,449.01,268.288,449.01,271.641"/>
		<path style="fill:#2B2523;" d="M164.461,223.823c-1.372-2.302-2.906-4.779-4.603-7.425c-1.702-2.646-3.459-5.315-5.273-8.005
			c-1.821-2.684-3.672-5.292-5.547-7.82c-1.882-2.525-3.668-4.798-5.369-6.817v30.067h-7.515v-42.011h6.243
			c1.616,1.695,3.358,3.707,5.214,6.031c1.856,2.324,3.725,4.743,5.607,7.247c1.88,2.503,3.696,5.018,5.453,7.546
			c1.759,2.525,3.325,4.88,4.7,7.061v-27.886h7.577v42.011H164.461z"/>
		<path style="fill:#2B2523;" d="M185.195,182.843c0,1.372-0.446,2.464-1.333,3.276c-0.889,0.806-1.939,1.21-3.152,1.21
			c-1.252,0-2.324-0.404-3.213-1.21c-0.889-0.812-1.333-1.904-1.333-3.276c0-1.417,0.444-2.525,1.333-3.334
			c0.889-0.808,1.961-1.214,3.213-1.214c1.214,0,2.264,0.406,3.152,1.214C184.749,180.318,185.195,181.426,185.195,182.843
			 M184.409,223.824h-7.339v-31.703h7.339V223.824z"/>
		<path style="fill:#2B2523;" d="M218.657,207.999c0,2.427-0.312,4.653-0.936,6.672c-0.628,2.02-1.528,3.758-2.697,5.211
			c-1.175,1.456-2.638,2.589-4.397,3.399c-1.757,0.804-3.747,1.212-5.973,1.212c-1.496,0-2.87-0.184-4.12-0.547
			c-1.25-0.362-2.282-0.767-3.092-1.21v12.303h-7.335v-41.89c1.496-0.402,3.336-0.788,5.514-1.153
			c2.185-0.364,4.489-0.547,6.913-0.547c2.506,0,4.748,0.386,6.735,1.153c1.974,0.771,3.665,1.871,5.057,3.307
			c1.397,1.438,2.464,3.169,3.213,5.213C218.282,203.163,218.657,205.456,218.657,207.999 M211.142,208.124
			c0-3.274-0.74-5.82-2.212-7.64c-1.478-1.818-3.848-2.728-7.122-2.728c-0.689,0-1.405,0.029-2.154,0.09
			c-0.747,0.062-1.484,0.195-2.212,0.395v18.127c0.646,0.442,1.506,0.859,2.576,1.243c1.07,0.384,2.212,0.575,3.426,0.575
			c2.668,0,4.618-0.907,5.85-2.727C210.525,213.641,211.142,211.193,211.142,208.124"/>
		<path style="fill:#2B2523;" d="M251.153,207.999c0,2.427-0.312,4.653-0.936,6.672c-0.632,2.02-1.529,3.758-2.701,5.211
			c-1.171,1.456-2.635,2.589-4.394,3.399c-1.761,0.804-3.751,1.212-5.973,1.212c-1.498,0-2.87-0.184-4.124-0.547
			c-1.25-0.362-2.28-0.767-3.088-1.21v12.303h-7.335v-41.89c1.493-0.402,3.332-0.788,5.514-1.153
			c2.185-0.364,4.487-0.547,6.913-0.547c2.503,0,4.748,0.386,6.731,1.153c1.974,0.771,3.665,1.871,5.06,3.307
			c1.394,1.438,2.464,3.169,3.209,5.213C250.78,203.163,251.153,205.456,251.153,207.999 M243.64,208.124
			c0-3.274-0.74-5.82-2.218-7.64c-1.474-1.818-3.848-2.728-7.122-2.728c-0.689,0-1.401,0.029-2.15,0.09
			c-0.751,0.062-1.487,0.195-2.212,0.395v18.127c0.646,0.442,1.502,0.859,2.572,1.243c1.074,0.384,2.216,0.575,3.426,0.575
			c2.668,0,4.618-0.907,5.85-2.727C243.019,213.641,243.64,211.193,243.64,208.124"/>
		<path style="fill:#2B2523;" d="M283.767,207.942c0,2.506-0.365,4.788-1.089,6.852c-0.731,2.06-1.761,3.819-3.094,5.273
			c-1.335,1.454-2.941,2.585-4.818,3.393c-1.882,0.806-3.953,1.214-6.213,1.214c-2.266,0-4.329-0.408-6.189-1.214
			c-1.853-0.808-3.452-1.939-4.787-3.393c-1.333-1.454-2.374-3.213-3.123-5.273c-0.745-2.064-1.118-4.346-1.118-6.852
			c0-2.506,0.373-4.779,1.118-6.821c0.749-2.044,1.799-3.79,3.156-5.244c1.35-1.456,2.956-2.576,4.82-3.365
			c1.854-0.788,3.898-1.181,6.123-1.181c2.223,0,4.273,0.393,6.149,1.181c1.88,0.789,3.489,1.909,4.822,3.365
			c1.333,1.454,2.376,3.2,3.123,5.244C283.394,203.162,283.767,205.435,283.767,207.942 M276.249,207.942
			c0-3.156-0.677-5.65-2.031-7.486c-1.353-1.842-3.241-2.761-5.664-2.761c-2.429,0-4.317,0.92-5.67,2.761
			c-1.357,1.836-2.031,4.329-2.031,7.486c0,3.193,0.674,5.719,2.031,7.576c1.353,1.862,3.241,2.791,5.67,2.791
			c2.424,0,4.311-0.929,5.664-2.791C275.571,213.661,276.249,211.135,276.249,207.942"/>
		<path style="fill:#2B2523;" d="M287.708,193.149c1.416-0.404,3.253-0.789,5.517-1.153c2.264-0.365,4.768-0.547,7.521-0.547
			c2.581,0,4.746,0.36,6.483,1.063c1.739,0.707,3.123,1.697,4.155,2.971c1.03,1.271,1.757,2.809,2.181,4.609
			c0.422,1.798,0.635,3.769,0.635,5.908v17.824h-7.335v-16.671c0-1.697-0.112-3.143-0.33-4.337c-0.226-1.19-0.589-2.159-1.096-2.908
			c-0.507-0.747-1.192-1.293-2.06-1.636c-0.867-0.343-1.933-0.516-3.184-0.516c-0.927,0-1.898,0.062-2.91,0.182
			c-1.01,0.121-1.755,0.224-2.242,0.303v25.584h-7.335V193.149z"/>
		<path style="fill:#E21118;" d="M330.344,169.988c1.746,0.573,3.129,1.663,4.15,3.272l2.488,5.086
			c0.307,0.103,0.665,0.154,1.07,0.154c0.483,0,0.777-0.051,0.881-0.154c0-0.635-0.028-1.184-0.077-1.645
			c-0.514-0.969-1.133-2.69-1.875-5.161c-0.788-2.626-1.379-4.262-1.761-4.899c-0.689-1.17-2.042-2.205-4.054-3.097
			c-1.223-0.534-2.822-1.111-4.781-1.72h-1.495v0.879c1.1,2.422,1.84,4.217,2.222,5.393
			C327.52,168.783,328.598,169.411,330.344,169.988"/>
		<polygon style="fill:#E21118;" points="330.4,221.188 336.83,224.743 336.83,191.659 330.4,191.659 		"/>
		<path style="fill:#E21118;" d="M363.336,191.656c-3.342,0-6.513,1.138-9.524,3.404l-3.404,2.565v-4.552h-6.579v28.22l6.272,3.287
			v-10.585c0-4.487,1.274-8.723,3.825-12.698c2.881-4.487,6.465-6.735,10.748-6.735c5.789,0,8.683,3.063,8.683,9.182
			c0,4.541-1.135,8.159-3.402,10.862c-1.608,1.913-3.02,3.391-5.317,5.661l7.385,4.629c4.893-5.328,6.806-10.275,6.806-16.066
			c0-4.612-1.401-8.578-4.208-11.894C371.638,193.417,367.878,191.656,363.336,191.656"/>
		<path style="fill:#E21118;" d="M428.765,169.988c1.744,0.573,3.129,1.663,4.151,3.272l2.486,5.086
			c0.305,0.103,0.665,0.154,1.074,0.154c0.483,0,0.773-0.051,0.878-0.154c0-0.635-0.026-1.184-0.077-1.645
			c-0.514-0.969-1.135-2.69-1.875-5.161c-0.789-2.626-1.379-4.262-1.761-4.899c-0.689-1.17-2.042-2.205-4.054-3.097
			c-1.223-0.534-2.818-1.111-4.781-1.72h-1.491v0.879c1.096,2.422,1.836,4.217,2.218,5.393
			C425.941,168.783,427.019,169.411,428.765,169.988"/>
		<polygon style="fill:#E21118;" points="428.824,221.34 435.247,224.896 435.247,191.656 428.824,191.656 		"/>
		<path style="fill:#E21118;" d="M473.999,186.915v-4.592h-34.391h-1.26h-13.313h-0.995h-4.014c0-7.728-1.291-14.461-3.867-20.197
			h-8.042c1.634,2.844,2.822,5.457,3.529,7.82c0.894,2.98,1.34,7.107,1.34,12.377h-31.406h-1.339h-39.053h-0.725H325.62v4.592
			h14.845h0.725h39.053h1.339h31.406v15.109c-3.444-3.749-5.583-5.967-6.426-6.658c-2.752-2.319-5.495-3.479-8.224-3.479
			c-4.285,0-7.945,1.836-10.978,5.506c-2.705,3.268-4.071,6.134-4.094,8.607c-0.024,2.705,0.96,5.484,2.947,8.339
			c1.682,2.424,3.799,4.539,6.347,6.351c2.984,2.115,5.74,3.173,8.264,3.173c3.977,0,8.035-2.664,12.164-7.994v6.044l6.96,2.984
			v-37.983h4.093h0.995h13.313h1.26h6.582v9.895c-0.028,0.028-0.092,0.103-0.193,0.231c-0.635,0.562-1.122,0.982-1.452,1.265v2.837
			c1.452-0.509,2.947-1.083,4.476-1.72c3.415-1.425,7.175-2.179,11.281-2.257c1.836-0.05,3.285,0.167,4.346,0.652
			c1.056,0.487,2.146,1.441,3.268,2.868v3.52c-2.218-1.686-5.154-2.528-8.8-2.528c-6.013,0-11.055,2.031-15.109,6.085
			c-2.089,2.091-3.134,4.197-3.134,6.311c0,1.891,0.663,3.597,1.987,5.126c2.73,3.165,6.604,4.743,11.631,4.743
			c3.648,0,6.85-0.646,9.603-1.952c0.865-0.406,1.972-1.004,3.323-1.796c0.334,0.23,0.499,1.399,0.499,2.214
			c3.52,1.456,5.543,2.286,6.083,2.49v-15.373c0-6.509-0.551-10.829-1.647-12.97c-1.63-3.215-5.317-4.818-11.055-4.818
			c-1.377,0-2.767,0.125-4.168,0.382c-3.255,0.586-5.104,0.968-5.572,1.148c-0.015-0.015-0.029-0.022-0.05-0.04
			c-0.105-0.103-0.206-0.154-0.307-0.154v-6.156H473.999z M408.283,210.897c-1.555,2.119-3.239,3.903-5.053,5.354
			c-2.6,2.093-5.049,3.138-7.342,3.138c-2.218,0-4.017-0.957-5.391-2.868c-1.252-1.708-1.876-3.724-1.876-6.044
			c0-4.234,2.499-7.904,7.498-11.016c2.293-1.428,4.205-2.143,5.734-2.143c2.091,0,4.109,0.639,6.048,1.913
			c2.167,1.43,3.25,3.136,3.25,5.124C411.151,206.116,410.194,208.297,408.283,210.897 M462.788,215.908
			c-3.924,2.372-8.26,3.556-13.003,3.556c-3.674,0-5.778-0.927-6.312-2.791c0-0.993,0.654-2.269,1.952-3.824
			c3.239-3.874,7.546-5.813,12.928-5.813c1.478,0,3.327,0.371,5.545,1.107c2.681,0.892,4.019,1.902,4.019,3.022
			C467.916,212.262,466.207,213.842,462.788,215.908"/>
	</g>
</g>
</svg>
