<?xml version="1.0" encoding="UTF-8"?>
<svg xmlns="http://www.w3.org/2000/svg" xmlns:xlink="http://www.w3.org/1999/xlink" width="612pt" height="792pt" viewBox="0 0 612 792" version="1.1">
<g id="surface1">
<path style=" stroke:none;fill-rule:nonzero;fill:rgb(0%,48.999023%,75.698853%);fill-opacity:1;" d="M 668.902344 642.648438 L 144.40625 642.648438 L 144.40625 222.234375 L 668.902344 222.234375 L 668.902344 642.648438 "/>
<path style=" stroke:none;fill-rule:nonzero;fill:rgb(100%,100%,100%);fill-opacity:1;" d="M 203.070313 590.527344 L 194.875 590.527344 L 194.875 271.910156 L 203.070313 271.910156 L 203.070313 590.527344 "/>
<path style=" stroke:none;fill-rule:nonzero;fill:rgb(100%,100%,100%);fill-opacity:1;" d="M 617.753906 590.527344 L 609.558594 590.527344 L 609.558594 271.910156 L 617.753906 271.910156 L 617.753906 590.527344 "/>
<path style=" stroke:none;fill-rule:nonzero;fill:rgb(100%,100%,100%);fill-opacity:1;" d="M 286.402344 469.871094 L 279.910156 484.960938 C 278.609375 487.722656 276.339844 492.753906 276.339844 495.835938 C 276.339844 501.835938 282.832031 502.484375 288.835938 502.972656 L 288.835938 505.894531 L 255.085938 505.894531 L 255.085938 502.972656 C 263.519531 502.160156 266.929688 497.941406 271.796875 486.585938 L 310.414063 396.039063 L 313.335938 396.039063 L 349.847656 483.664063 C 353.902344 493.398438 356.988281 502.484375 368.996094 502.972656 L 368.996094 505.894531 L 326.640625 505.894531 L 326.640625 502.972656 C 333.617188 502.648438 337.675781 501.351563 337.675781 495.671875 C 337.675781 492.101563 335.082031 486.585938 333.78125 483.339844 L 327.941406 469.871094 Z M 307.496094 420.703125 L 288.835938 464.027344 L 325.828125 464.027344 Z M 307.496094 420.703125 "/>
<path style=" stroke:none;fill-rule:nonzero;fill:rgb(100%,100%,100%);fill-opacity:1;" d="M 414.101563 485.285156 C 414.101563 498.914063 414.101563 502.972656 429.355469 502.972656 L 429.355469 505.894531 L 383.59375 505.894531 L 383.59375 502.972656 C 398.847656 502.972656 398.847656 498.914063 398.847656 485.285156 L 398.847656 419.082031 C 398.847656 405.453125 398.847656 401.394531 383.59375 401.394531 L 383.59375 398.472656 L 429.355469 398.472656 L 429.355469 401.394531 C 414.101563 401.394531 414.101563 405.453125 414.101563 419.082031 L 414.101563 485.285156 "/>
<path style=" stroke:none;fill-rule:nonzero;fill:rgb(100%,100%,100%);fill-opacity:1;" d="M 545.371094 498.914063 C 534.179688 505.082031 521.359375 508.328125 508.378906 508.328125 C 460.835938 508.328125 448.5 473.117188 448.5 453.96875 C 448.5 428.980469 466.835938 396.039063 505.296875 396.039063 C 513.242188 396.039063 519.246094 397.5 525.253906 399.609375 C 527.6875 400.421875 533.203125 402.855469 535.3125 402.855469 C 538.886719 402.855469 539.207031 398.800781 539.367188 396.039063 L 542.289063 396.039063 L 545.050781 429.953125 L 542.128906 429.953125 C 536.773438 412.101563 525.414063 401.554688 506.269531 401.554688 C 479.007813 401.554688 466.675781 426.058594 466.675781 450.398438 C 466.675781 481.390625 483.875 502.8125 508.378906 502.8125 C 515.191406 502.8125 523.789063 501.023438 530.121094 496.96875 L 530.121094 467.921875 C 530.121094 454.292969 530.121094 450.238281 514.867188 450.238281 L 514.867188 447.316406 L 557.546875 447.316406 L 557.546875 450.238281 C 547.15625 450.238281 545.371094 453.96875 545.371094 465.328125 L 545.371094 498.914063 "/>
<path style=" stroke:none;fill-rule:nonzero;fill:rgb(100%,100%,100%);fill-opacity:1;" d="M 235.738281 543.316406 L 244.492188 543.316406 L 244.492188 582.433594 L 258.9375 582.433594 L 258.9375 590.617188 L 235.738281 590.617188 L 235.738281 543.316406 "/>
<path style=" stroke:none;fill-rule:nonzero;fill:rgb(100%,100%,100%);fill-opacity:1;" d="M 343.765625 543.316406 L 352.523438 543.316406 L 352.523438 590.617188 L 343.765625 590.617188 L 343.765625 543.316406 "/>
<path style=" stroke:none;fill-rule:nonzero;fill:rgb(100%,100%,100%);fill-opacity:1;" d="M 440.863281 543.316406 L 464.964844 543.316406 L 464.964844 551.5 L 449.621094 551.5 L 449.621094 563.066406 L 464.261719 563.066406 L 464.261719 571.25 L 449.621094 571.25 L 449.621094 590.617188 L 440.863281 590.617188 L 440.863281 543.316406 "/>
<path style=" stroke:none;fill-rule:nonzero;fill:rgb(100%,100%,100%);fill-opacity:1;" d="M 551.449219 543.316406 L 576.894531 543.316406 L 576.894531 551.5 L 560.210938 551.5 L 560.210938 563.066406 L 576.1875 563.066406 L 576.1875 571.25 L 560.210938 571.25 L 560.210938 582.433594 L 576.894531 582.433594 L 576.894531 590.617188 L 551.449219 590.617188 L 551.449219 543.316406 "/>
<path style=" stroke:none;fill-rule:nonzero;fill:rgb(100%,100%,100%);fill-opacity:1;" d="M 232.703125 271.820313 L 319.941406 271.820313 L 319.941406 300.128906 L 294.996094 300.128906 L 294.996094 360.742188 L 257.703125 360.742188 L 257.703125 300.097656 L 232.710938 300.097656 L 232.703125 271.820313 "/>
<path style=" stroke:none;fill-rule:nonzero;fill:rgb(100%,100%,100%);fill-opacity:1;" d="M 339.453125 271.925781 L 303.496094 360.855469 L 340.855469 360.855469 L 358.507813 320.789063 L 376.160156 360.855469 L 413.519531 360.855469 L 377.558594 271.925781 L 339.453125 271.925781 "/>
<path style=" stroke:none;fill-rule:nonzero;fill:rgb(100%,100%,100%);fill-opacity:1;" d="M 399.113281 271.820313 L 486.355469 271.820313 L 486.355469 300.128906 L 461.402344 300.128906 L 461.402344 360.742188 L 424.113281 360.742188 L 424.113281 300.097656 L 399.121094 300.097656 L 399.113281 271.820313 "/>
<path style=" stroke:none;fill-rule:nonzero;fill:rgb(100%,100%,100%);fill-opacity:1;" d="M 505.863281 271.925781 L 469.90625 360.855469 L 507.265625 360.855469 L 524.917969 320.789063 L 542.566406 360.855469 L 579.929688 360.855469 L 543.96875 271.925781 L 505.863281 271.925781 "/>
<path style=" stroke:none;fill-rule:nonzero;fill:rgb(0%,48.999023%,75.698853%);fill-opacity:1;" d="M 113.71875 704 L 121.550781 704 L 133.867188 753.476563 L 124.859375 753.476563 L 122.234375 742.953125 L 102.617188 742.953125 L 96.984375 753.476563 L 87 753.476563 Z M 119.980469 734.195313 L 116.007813 717.921875 L 107.304688 734.195313 Z M 119.980469 734.195313 "/>
<path style=" stroke:none;fill-rule:nonzero;fill:rgb(0%,48.999023%,75.698853%);fill-opacity:1;" d="M 172.136719 716.90625 L 181.128906 716.90625 L 180.617188 720.652344 C 184.054688 717.539063 187.632813 715.984375 191.34375 715.984375 C 194.511719 715.984375 197.109375 716.984375 199.132813 718.988281 C 201.15625 720.996094 202.164063 723.523438 202.164063 726.578125 C 202.164063 728.007813 201.976563 730.152344 201.59375 732.996094 L 198.796875 753.476563 L 189.804688 753.476563 L 192.535156 733.472656 C 192.804688 731.425781 192.941406 729.886719 192.941406 728.863281 C 192.941406 727.390625 192.515625 726.261719 191.675781 725.46875 C 190.832031 724.675781 189.632813 724.28125 188.078125 724.28125 C 186.570313 724.28125 185.0625 724.800781 183.558594 725.839844 C 182.050781 726.882813 180.890625 728.328125 180.078125 730.167969 C 179.269531 732.015625 178.527344 735.480469 177.855469 740.554688 L 176.132813 753.476563 L 167.140625 753.476563 L 172.136719 716.90625 "/>
<path style=" stroke:none;fill-rule:nonzero;fill:rgb(0%,48.999023%,75.698853%);fill-opacity:1;" d="M 239.671875 742.738281 L 247.570313 746.84375 C 245.796875 749.164063 243.449219 751.011719 240.523438 752.363281 C 237.601563 753.71875 234.355469 754.402344 230.792969 754.402344 C 225.210938 754.402344 220.8125 752.832031 217.597656 749.695313 C 214.378906 746.5625 212.773438 742.402344 212.773438 737.207031 C 212.773438 731.273438 214.785156 726.253906 218.804688 722.144531 C 222.828125 718.035156 227.683594 715.984375 233.378906 715.984375 C 236.804688 715.984375 239.855469 716.734375 242.535156 718.230469 C 245.210938 719.730469 247.324219 721.914063 248.871094 724.777344 C 250.414063 727.644531 251.1875 730.757813 251.1875 734.105469 C 251.1875 735.164063 251.078125 736.394531 250.851563 737.804688 L 221.6875 737.804688 C 221.773438 740.332031 222.609375 742.347656 224.191406 743.847656 C 225.769531 745.347656 227.949219 746.101563 230.730469 746.101563 C 234.089844 746.101563 237.070313 744.976563 239.671875 742.738281 Z M 241.96875 731.273438 C 241.296875 729.027344 240.175781 727.328125 238.605469 726.167969 C 237.03125 725.011719 235.140625 724.433594 232.921875 724.433594 C 230.722656 724.433594 228.738281 725.03125 226.964844 726.21875 C 225.195313 727.40625 223.851563 729.09375 222.929688 731.273438 L 241.96875 731.273438 "/>
<path style=" stroke:none;fill-rule:nonzero;fill:rgb(0%,48.999023%,75.698853%);fill-opacity:1;" d="M 260.320313 716.90625 L 269.027344 716.90625 L 273.871094 736.472656 L 284.390625 716.90625 L 288.078125 716.90625 L 293.164063 736.496094 L 303.808594 716.90625 L 313.335938 716.90625 L 293.464844 753.476563 L 289.117188 753.476563 L 284.097656 734.144531 L 273.714844 753.476563 L 269.378906 753.476563 L 260.320313 716.90625 "/>
<path style=" stroke:none;fill-rule:nonzero;fill:rgb(0%,48.999023%,75.698853%);fill-opacity:1;" d="M 347.828125 702.769531 L 356.824219 702.769531 L 349.898438 753.476563 L 340.90625 753.476563 L 347.828125 702.769531 "/>
<path style=" stroke:none;fill-rule:nonzero;fill:rgb(0%,48.999023%,75.698853%);fill-opacity:1;" d="M 383.773438 715.984375 C 387.027344 715.984375 389.980469 716.734375 392.640625 718.230469 C 395.300781 719.730469 397.371094 721.855469 398.851563 724.613281 C 400.328125 727.363281 401.070313 730.457031 401.070313 733.882813 C 401.070313 739.566406 399.039063 744.40625 394.980469 748.402344 C 390.921875 752.402344 385.894531 754.402344 379.90625 754.402344 C 374.699219 754.402344 370.546875 752.824219 367.453125 749.679688 C 364.355469 746.535156 362.808594 742.421875 362.808594 737.339844 C 362.808594 731.207031 364.90625 726.109375 369.101563 722.058594 C 373.296875 718.011719 378.1875 715.984375 383.773438 715.984375 Z M 383.109375 724.515625 C 379.460938 724.515625 376.664063 725.828125 374.714844 728.457031 C 372.769531 731.085938 371.800781 733.933594 371.800781 736.996094 C 371.800781 739.734375 372.59375 741.933594 374.183594 743.597656 C 375.773438 745.269531 377.894531 746.101563 380.539063 746.101563 C 384.296875 746.101563 387.160156 744.832031 389.128906 742.289063 C 391.097656 739.75 392.082031 736.84375 392.082031 733.578125 C 392.082031 730.890625 391.246094 728.710938 389.578125 727.03125 C 387.910156 725.347656 385.753906 724.515625 383.109375 724.515625 "/>
<path style=" stroke:none;fill-rule:nonzero;fill:rgb(0%,48.999023%,75.698853%);fill-opacity:1;" d="M 431.628906 715.984375 C 434.878906 715.984375 437.835938 716.734375 440.492188 718.230469 C 443.152344 719.730469 445.222656 721.855469 446.703125 724.613281 C 448.183594 727.363281 448.925781 730.457031 448.925781 733.882813 C 448.925781 739.566406 446.894531 744.40625 442.835938 748.402344 C 438.773438 752.402344 433.746094 754.402344 427.757813 754.402344 C 422.554688 754.402344 418.402344 752.824219 415.308594 749.679688 C 412.210938 746.535156 410.664063 742.421875 410.664063 737.339844 C 410.664063 731.207031 412.757813 726.109375 416.957031 722.058594 C 421.152344 718.011719 426.039063 715.984375 431.628906 715.984375 Z M 430.960938 724.515625 C 427.3125 724.515625 424.519531 725.828125 422.570313 728.457031 C 420.625 731.085938 419.652344 733.933594 419.652344 736.996094 C 419.652344 739.734375 420.445313 741.933594 422.035156 743.597656 C 423.625 745.269531 425.746094 746.101563 428.394531 746.101563 C 432.148438 746.101563 435.015625 744.832031 436.980469 742.289063 C 438.949219 739.75 439.9375 736.84375 439.9375 733.578125 C 439.9375 730.890625 439.101563 728.710938 437.433594 727.03125 C 435.765625 725.347656 433.605469 724.515625 430.960938 724.515625 "/>
<path style=" stroke:none;fill-rule:nonzero;fill:rgb(0%,48.999023%,75.698853%);fill-opacity:1;" d="M 464.902344 702.769531 L 473.714844 702.769531 L 470.046875 729.621094 L 484.398438 716.90625 L 496.699219 716.90625 L 478.214844 733.28125 L 494.382813 753.476563 L 483.625 753.476563 L 469.230469 735.585938 L 466.789063 753.476563 L 457.980469 753.476563 L 464.902344 702.769531 "/>
<path style=" stroke:none;fill-rule:nonzero;fill:rgb(0%,48.999023%,75.698853%);fill-opacity:1;" d="M 556.554688 716.90625 L 565.519531 716.90625 L 560.441406 753.476563 L 551.558594 753.476563 L 552.097656 749.527344 C 550.148438 751.34375 548.328125 752.601563 546.640625 753.324219 C 544.949219 754.039063 543.054688 754.402344 540.945313 754.402344 C 536.109375 754.402344 532.265625 752.617188 529.410156 749.058594 C 526.554688 745.496094 525.128906 741.355469 525.128906 736.632813 C 525.128906 733.03125 526.039063 729.597656 527.867188 726.34375 C 529.695313 723.082031 532.144531 720.546875 535.226563 718.722656 C 538.304688 716.898438 541.523438 715.984375 544.886719 715.984375 C 547.140625 715.984375 549.222656 716.503906 551.128906 717.539063 C 553.03125 718.582031 554.605469 720.09375 555.847656 722.085938 Z M 543.109375 746.410156 C 545.308594 746.410156 547.222656 745.914063 548.855469 744.929688 C 550.484375 743.945313 551.855469 742.40625 552.964844 740.300781 C 554.070313 738.199219 554.628906 736.046875 554.628906 733.855469 C 554.628906 730.976563 553.789063 728.660156 552.125 726.90625 C 550.460938 725.15625 548.261719 724.28125 545.527344 724.28125 C 542.351563 724.28125 539.652344 725.453125 537.441406 727.800781 C 535.226563 730.152344 534.117188 733.175781 534.117188 736.886719 C 534.117188 739.742188 534.953125 742.046875 536.636719 743.792969 C 538.3125 745.535156 540.472656 746.410156 543.109375 746.410156 "/>
<path style=" stroke:none;fill-rule:nonzero;fill:rgb(0%,48.999023%,75.698853%);fill-opacity:1;" d="M 578.472656 717.898438 L 583.179688 717.894531 L 584.078125 712.214844 L 594.832031 705.570313 L 592.875 717.886719 L 598.832031 717.882813 L 597.652344 724.863281 L 591.695313 724.867188 L 589.316406 739.855469 C 589.253906 739.992188 589.210938 740.535156 589.097656 741.089844 C 588.769531 742.796875 588.667969 743.617188 588.710938 744.4375 C 588.824219 746.761719 590.96875 746.761719 592.078125 746.761719 C 592.703125 746.761719 594.90625 746.554688 595.253906 746.554688 L 594.078125 753.667969 C 592.363281 754.015625 590.988281 754.15625 588.976563 754.15625 C 584.128906 754.160156 579.074219 752.792969 578.78125 746.84375 C 578.699219 745.128906 578.90625 743.691406 579.65625 739.242188 L 582 724.875 L 577.289063 724.878906 L 578.472656 717.898438 "/>
</g>
</svg>
